<?xml version="1.0" encoding="utf-8"?>
<!-- Generator: Adobe Illustrator 16.0.0, SVG Export Plug-In . SVG Version: 6.00 Build 0)  -->
<!DOCTYPE svg PUBLIC "-//W3C//DTD SVG 1.1//EN" "http://www.w3.org/Graphics/SVG/1.1/DTD/svg11.dtd">
<svg version="1.1" id="Camada_1" xmlns="http://www.w3.org/2000/svg" xmlns:xlink="http://www.w3.org/1999/xlink" x="0px" y="0px"
	 width="233.481px" height="233.48px" viewBox="0 0 233.481 233.48" enable-background="new 0 0 233.481 233.48"
	 xml:space="preserve">
<g>
	<defs>
		<circle id="SVGID_1_" cx="116.741" cy="116.741" r="116.741"/>
	</defs>
	<clipPath id="SVGID_2_">
		<use xlink:href="#SVGID_1_"  overflow="visible"/>
	</clipPath>
	<rect x="-10.734" y="-6.284" clip-path="url(#SVGID_2_)" fill="#162817" width="251.846" height="245.271"/>
	<polygon opacity="0.1" clip-path="url(#SVGID_2_)" fill="#252223" points="235.144,228.964 203.748,228.964 37.897,142.292 
		124.864,101.958 234.822,145.067 	"/>
	<polygon clip-path="url(#SVGID_2_)" fill="#86A8CA" points="186.034,137.561 118.576,167.852 54.003,137.164 119.581,114.544 	"/>
	<polygon clip-path="url(#SVGID_2_)" fill="#37495B" points="185.875,137.721 118.576,167.852 54.804,137.003 165.517,130.184 
		185.875,136.441 	"/>
	<path clip-path="url(#SVGID_2_)" fill="#FFFFFF" d="M180.115,124.537c0,0-5.435,8.631,2.076,11.826
		c-7.352,2.878-63.615,28.772-63.615,28.772l-7.031-3.355l3.037-12.149L180.115,124.537z"/>
	<polyline clip-path="url(#SVGID_2_)" fill="#C5C5C7" points="118.592,150.6 147.35,152.029 149.267,154.106 118.576,167.852 
		111.705,164.176 109.148,155.545 114.582,149.631 118.592,150.6 	"/>
	<path clip-path="url(#SVGID_2_)" fill="#37495B" d="M118.592,151.879c0,0-2.473,2.165-2.198,7.715
		c0.266,5.382,2.823,6.341,2.823,6.341l0.107,0.8c0,0-2.663-0.161-2.718-0.32c-0.054-0.161-2.452-7.779-2.452-8.045
		s1.12-6.235,1.12-6.235s1.76-1.226,1.972-1.277C117.459,150.803,118.592,151.879,118.592,151.879z"/>
	<polygon clip-path="url(#SVGID_2_)" fill="#37495B" points="186.034,122.535 118.592,151.879 53.128,122.535 186.034,121.258 	"/>
	<polygon clip-path="url(#SVGID_2_)" fill="#86A8CA" points="186.034,121.258 118.592,150.6 53.128,121.256 119.581,98.242 	"/>
	<path clip-path="url(#SVGID_2_)" fill="#748EAE" d="M53.128,121.256l65.464,29.344c0,0-3.852,2.016-3.53,9.102
		c0.263,5.811,3.515,8.15,3.515,8.15l-62.975-29.25c0,0-5.327-1.757-6.18-7.511c-0.853-5.755,2.985-9.272,2.985-9.272
		L53.128,121.256z"/>
	<path clip-path="url(#SVGID_2_)" fill="#748EAE" d="M53.128,121.256l65.464,29.344c0,0-3.852,2.016-3.53,9.102
		c0.263,5.811,3.515,8.15,3.515,8.15l-62.975-29.25c0,0-5.327-1.757-6.18-7.511c-0.853-5.755,2.985-9.272,2.985-9.272
		L53.128,121.256z"/>
	
		<path clip-path="url(#SVGID_2_)" fill="none" stroke="#637C96" stroke-width="3.2531" stroke-linecap="round" stroke-linejoin="round" stroke-miterlimit="10" d="
		M60.717,124.377c0,0-7.032,8.152,0.319,16.943"/>
	
		<path clip-path="url(#SVGID_2_)" fill="none" stroke="#637C96" stroke-width="3.2531" stroke-linecap="round" stroke-linejoin="round" stroke-miterlimit="10" d="
		M103.98,144.303c0,0-7.034,8.15,0.32,16.942"/>
	
		<path clip-path="url(#SVGID_2_)" fill="none" stroke="#637C96" stroke-width="3.2531" stroke-linecap="round" stroke-linejoin="round" stroke-miterlimit="10" d="
		M80.963,134.074c0,0-7.033,8.151,0.318,16.941"/>
	<polygon clip-path="url(#SVGID_2_)" fill="#86A8CA" points="188.912,114.864 121.454,145.155 56.879,114.468 122.457,91.848 	"/>
	<polygon clip-path="url(#SVGID_2_)" fill="#37495B" points="188.751,115.022 121.454,145.155 57.68,114.308 168.393,107.488 
		188.751,113.745 	"/>
	<path clip-path="url(#SVGID_2_)" fill="#FFFFFF" d="M182.991,101.841c0,0-5.433,8.631,2.078,11.826
		c-7.352,2.878-63.615,28.771-63.615,28.771l-7.032-3.356l3.037-12.148L182.991,101.841z"/>
	<polyline clip-path="url(#SVGID_2_)" fill="#C5C5C7" points="176.278,117.663 186.034,121.258 186.034,122.535 121.454,145.155 
		114.582,141.479 112.024,132.848 117.459,126.934 140.796,120.38 	"/>
	<path clip-path="url(#SVGID_2_)" fill="#37495B" d="M121.47,129.182c0,0-2.475,2.166-2.2,7.715
		c0.268,5.383,2.825,6.342,2.825,6.342l0.106,0.799c0,0-2.664-0.16-2.716-0.32c-0.056-0.158-2.451-7.779-2.451-8.044
		c0-0.267,1.118-6.235,1.118-6.235s1.758-1.227,1.97-1.277C120.336,128.105,121.47,129.182,121.47,129.182z"/>
	<polygon clip-path="url(#SVGID_2_)" fill="#37495B" points="188.912,99.838 121.47,129.182 56.006,99.838 188.912,98.56 	"/>
	<polygon clip-path="url(#SVGID_2_)" fill="#E4DBBB" points="188.912,98.56 121.47,127.902 56.006,98.56 122.457,75.544 	"/>
	<path clip-path="url(#SVGID_2_)" fill="#9C9477" d="M56.006,98.56l65.464,29.343c0,0-3.852,2.016-3.532,9.101
		c0.263,5.812,3.517,8.152,3.517,8.152l-62.976-29.248c0,0-5.328-1.759-6.181-7.514c-0.853-5.755,2.985-9.271,2.985-9.271
		L56.006,98.56z"/>
	<g clip-path="url(#SVGID_2_)">
		<path fill="#E4DBBB" d="M63.915,119.581c-0.276,0-0.548-0.116-0.737-0.343c-7.785-9.308-0.386-18.098-0.31-18.184
			c0.346-0.401,0.95-0.446,1.352-0.101c0.402,0.346,0.446,0.951,0.102,1.353l0,0c-0.264,0.309-6.397,7.662,0.328,15.702
			c0.34,0.406,0.285,1.012-0.122,1.352C64.349,119.508,64.131,119.581,63.915,119.581z"/>
	</g>
	<g clip-path="url(#SVGID_2_)">
		<path fill="#E4DBBB" d="M107.177,139.508c-0.274,0-0.546-0.116-0.736-0.344c-7.786-9.309-0.387-18.098-0.311-18.186
			c0.346-0.4,0.952-0.445,1.353-0.1c0.401,0.346,0.446,0.951,0.101,1.353c-0.271,0.316-6.393,7.665,0.329,15.702
			c0.34,0.405,0.287,1.011-0.121,1.352C107.61,139.436,107.395,139.508,107.177,139.508z"/>
	</g>
	<g clip-path="url(#SVGID_2_)">
		<path fill="#E4DBBB" d="M84.161,129.277c-0.275,0-0.547-0.117-0.737-0.344c-7.785-9.308-0.386-18.096-0.31-18.184
			c0.346-0.402,0.952-0.445,1.353-0.1c0.4,0.347,0.446,0.951,0.101,1.353c-0.271,0.316-6.393,7.665,0.329,15.701
			c0.338,0.405,0.285,1.011-0.121,1.351C84.596,129.204,84.376,129.277,84.161,129.277z"/>
	</g>
	<polygon clip-path="url(#SVGID_2_)" fill="#86A8CA" points="174.847,97.921 107.389,128.213 42.815,97.525 108.392,74.905 	"/>
	<polygon clip-path="url(#SVGID_2_)" fill="#74813C" points="174.686,98.08 107.389,128.213 43.614,97.364 154.327,90.545 
		174.686,96.802 	"/>
	<path clip-path="url(#SVGID_2_)" fill="#FFFFFF" d="M168.926,84.898c0,0-5.434,8.631,2.08,11.827
		c-7.354,2.877-63.617,28.77-63.617,28.77l-7.032-3.356l3.036-12.147L168.926,84.898z"/>
	<path clip-path="url(#SVGID_2_)" fill="#74813C" d="M107.402,112.24c0,0-2.471,2.164-2.198,7.713
		c0.268,5.383,2.825,6.342,2.825,6.342l0.105,0.799c0,0-2.663-0.16-2.715-0.318c-0.055-0.162-2.453-7.78-2.453-8.046
		c0-0.267,1.119-6.235,1.119-6.235s1.759-1.225,1.971-1.278C106.271,111.164,107.402,112.24,107.402,112.24z"/>
	<polyline clip-path="url(#SVGID_2_)" fill="#C5C5C7" points="134.082,105.036 174.847,97.921 188.912,99.838 122.041,128.24 
		114.683,124.896 107.525,128.307 91.875,111.585 120.656,105.676 	"/>
	<polygon clip-path="url(#SVGID_2_)" fill="#74813C" points="174.847,82.896 107.402,112.24 41.939,82.896 174.847,81.617 	"/>
	<polygon clip-path="url(#SVGID_2_)" fill="#C5C471" points="174.847,81.617 107.402,110.961 41.939,81.617 108.392,58.601 	"/>
	<path clip-path="url(#SVGID_2_)" fill="#748EAE" d="M41.939,81.617l65.463,29.344c0,0-3.852,2.014-3.53,9.1
		c0.263,5.812,3.517,8.152,3.517,8.152L44.412,98.964c0,0-5.326-1.759-6.18-7.513c-0.852-5.754,2.985-9.271,2.985-9.271
		L41.939,81.617z"/>
	<path clip-path="url(#SVGID_2_)" fill="#8A9865" d="M41.939,81.617l65.463,29.344c0,0-3.852,2.014-3.53,9.1
		c0.263,5.812,3.517,8.152,3.517,8.152L44.412,98.964c0,0-5.326-1.759-6.18-7.513c-0.852-5.754,2.985-9.271,2.985-9.271
		L41.939,81.617z"/>
	<g clip-path="url(#SVGID_2_)">
		<path fill="#C5C471" d="M49.85,102.639c-0.274,0-0.548-0.117-0.737-0.344c-7.785-9.309-0.386-18.098-0.31-18.185
			c0.346-0.401,0.949-0.445,1.352-0.1c0.4,0.344,0.446,0.951,0.102,1.351l0,0c-0.266,0.31-6.398,7.662,0.328,15.703
			c0.34,0.407,0.286,1.011-0.122,1.351C50.283,102.565,50.064,102.639,49.85,102.639z"/>
	</g>
	<g clip-path="url(#SVGID_2_)">
		<path fill="#C5C471" d="M93.111,122.564c-0.275,0-0.548-0.115-0.737-0.343c-7.785-9.309-0.386-18.097-0.31-18.185
			c0.346-0.401,0.951-0.446,1.353-0.099c0.399,0.345,0.444,0.949,0.101,1.351l0,0c-0.264,0.31-6.396,7.662,0.328,15.703
			c0.339,0.405,0.286,1.011-0.122,1.351C93.547,122.492,93.329,122.564,93.111,122.564z"/>
	</g>
	<g clip-path="url(#SVGID_2_)">
		<path fill="#C5C471" d="M70.096,112.335c-0.275,0-0.547-0.118-0.738-0.343c-7.785-9.309-0.385-18.098-0.309-18.186
			c0.346-0.402,0.951-0.446,1.353-0.1c0.4,0.347,0.446,0.951,0.101,1.352l0,0c-0.264,0.31-6.397,7.663,0.327,15.703
			c0.34,0.406,0.285,1.011-0.119,1.351C70.529,112.262,70.311,112.335,70.096,112.335z"/>
	</g>
	<polygon clip-path="url(#SVGID_2_)" fill="#86A8CA" points="195.623,81.617 128.169,111.91 63.594,81.221 129.171,58.601 	"/>
	<polygon clip-path="url(#SVGID_2_)" fill="#56375F" points="195.465,81.777 128.169,111.91 64.393,81.06 175.107,74.242 
		195.465,80.499 	"/>
	<path clip-path="url(#SVGID_2_)" fill="#FFFFFF" d="M189.705,68.595c0,0-5.434,8.629,2.078,11.827
		c-7.353,2.876-63.614,28.77-63.614,28.77l-7.033-3.356l3.037-12.147L189.705,68.595z"/>
	<path clip-path="url(#SVGID_2_)" fill="#56375F" d="M128.181,95.936c0,0-2.471,2.165-2.196,7.714
		c0.266,5.382,2.823,6.341,2.823,6.341l0.105,0.799c0,0-2.662-0.16-2.717-0.319c-0.052-0.161-2.451-7.78-2.451-8.046
		c0-0.266,1.119-6.234,1.119-6.234s1.76-1.226,1.973-1.277C127.049,94.859,128.181,95.936,128.181,95.936z"/>
	<polyline clip-path="url(#SVGID_2_)" fill="#C5C5C7" points="128.181,94.657 156.938,96.087 158.857,98.165 128.169,111.91 
		121.294,108.233 118.737,99.603 124.173,93.688 128.181,94.657 	"/>
	<polygon clip-path="url(#SVGID_2_)" fill="#56375F" points="195.623,66.593 128.181,95.936 62.717,66.592 195.623,65.314 	"/>
	<polygon clip-path="url(#SVGID_2_)" fill="#C5BD72" stroke="#142115" stroke-miterlimit="10" points="195.623,65.314 
		128.181,94.657 62.717,65.313 129.171,42.298 	"/>
	<path clip-path="url(#SVGID_2_)" fill="#748EAE" d="M62.717,65.313l65.464,29.344c0,0-3.851,2.015-3.528,9.1
		c0.261,5.812,3.517,8.153,3.517,8.153L65.192,82.66c0,0-5.328-1.758-6.181-7.513c-0.853-5.754,2.982-9.27,2.982-9.27L62.717,65.313
		z"/>
	<path clip-path="url(#SVGID_2_)" fill="#C5BD72" d="M62.717,65.313l65.464,29.344c0,0-3.851,2.015-3.528,9.1
		c0.261,5.812,3.517,8.153,3.517,8.153L65.192,82.66c0,0-5.328-1.758-6.181-7.513c-0.853-5.754,2.982-9.27,2.982-9.27L62.717,65.313
		z"/>
	<g clip-path="url(#SVGID_2_)">
		<path fill="#162817" d="M70.628,86.335c-0.274,0-0.548-0.117-0.736-0.343c-7.785-9.309-0.385-18.098-0.311-18.185
			c0.348-0.402,0.952-0.446,1.353-0.101c0.399,0.345,0.445,0.951,0.101,1.352l0,0c-0.264,0.31-6.397,7.662,0.327,15.703
			c0.34,0.407,0.287,1.01-0.119,1.351C71.063,86.262,70.845,86.335,70.628,86.335z"/>
	</g>
	<g clip-path="url(#SVGID_2_)">
		<path fill="#162817" d="M113.891,106.262c-0.276,0-0.548-0.116-0.737-0.344c-7.785-9.31-0.386-18.098-0.31-18.185
			c0.346-0.401,0.95-0.446,1.354-0.1c0.4,0.345,0.444,0.95,0.1,1.352l0,0c-0.264,0.31-6.398,7.661,0.328,15.703
			c0.34,0.406,0.285,1.011-0.121,1.351C114.324,106.189,114.106,106.262,113.891,106.262z"/>
	</g>
	<g clip-path="url(#SVGID_2_)">
		<path fill="#162817" d="M90.872,96.032c-0.273,0-0.546-0.118-0.734-0.344c-7.785-9.308-0.386-18.098-0.313-18.185
			c0.349-0.402,0.952-0.446,1.354-0.1c0.399,0.345,0.444,0.949,0.102,1.352l0,0c-0.266,0.309-6.398,7.662,0.328,15.702
			c0.34,0.406,0.285,1.012-0.121,1.352C91.309,95.959,91.09,96.032,90.872,96.032z"/>
	</g>
</g>
</svg>
