<?xml version="1.0" encoding="utf-8"?>
<!-- Generator: Adobe Illustrator 16.0.0, SVG Export Plug-In . SVG Version: 6.00 Build 0)  -->
<!DOCTYPE svg PUBLIC "-//W3C//DTD SVG 1.1//EN" "http://www.w3.org/Graphics/SVG/1.1/DTD/svg11.dtd">
<svg version="1.1" xmlns="http://www.w3.org/2000/svg" xmlns:xlink="http://www.w3.org/1999/xlink" x="0px" y="0px"
	 width="118.554px" height="243.809px" viewBox="0 0 118.554 243.809" enable-background="new 0 0 118.554 243.809"
	 xml:space="preserve">
<g id="Camada_1">
	<g>
		<path fill="#C5BD72" d="M59.386,243.809c-32.535,0.002-58.907-26.372-58.907-58.903C0.479,152.374,26.851,126,59.386,126
			c32.53,0,58.905,26.374,58.905,58.906C118.291,217.437,91.916,243.811,59.386,243.809z"/>
		<path fill="#9B935A" d="M26.388,178.824L3.053,202.16c4.802,15.692,15.979,28.597,30.512,35.697l25.712-25.714L26.388,178.824z"/>
		<polygon fill="#FFFFFF" points="59.277,212.143 92.381,179.038 81.203,167.864 59.492,189.572 37.566,167.648 26.388,178.824 		
			"/>
	</g>
</g>
<g id="Camada_2">
	<g>
		<path fill="#162817" d="M59.279,118.555C26.539,118.556,0,92.016,0,59.279C0,26.541,26.539,0.002,59.279,0
			c32.733,0.002,59.274,26.541,59.274,59.278C118.554,92.015,92.013,118.556,59.279,118.555z"/>
		<polygon fill="#FFFFFF" points="59.17,86.688 92.479,53.375 81.231,42.13 59.385,63.977 37.322,41.913 26.072,53.16 		"/>
		<path fill="#131712" d="M26.072,53.16L2.591,76.643c4.831,15.792,16.078,28.776,30.704,35.921L59.17,86.688L26.072,53.16z"/>
	</g>
</g>
</svg>
