<?xml version="1.0" encoding="utf-8"?>
<!-- Generator: Adobe Illustrator 16.0.0, SVG Export Plug-In . SVG Version: 6.00 Build 0)  -->
<!DOCTYPE svg PUBLIC "-//W3C//DTD SVG 1.1//EN" "http://www.w3.org/Graphics/SVG/1.1/DTD/svg11.dtd">
<svg version="1.1" id="Camada_1" xmlns="http://www.w3.org/2000/svg" xmlns:xlink="http://www.w3.org/1999/xlink" x="0px" y="0px"
	 width="265.462px" height="211.662px" viewBox="0 0 265.462 211.662" enable-background="new 0 0 265.462 211.662"
	 xml:space="preserve">
<path fill="#C5BD72" d="M222.568,0H42.895C19.243,0,0,15.757,0,35.125v102.073c0,16.932,14.708,31.104,34.212,34.398
	c15.266,37.439,51.208,40.065,51.208,40.065c-13.2-16.565-8.3-31.552-3.917-39.341h141.065c23.652,0,42.894-15.756,42.894-35.123
	V35.125C265.462,15.757,246.221,0,222.568,0z"/>
<path fill="#162817" d="M42.895,155.228c-16.14,0-29.271-9.895-29.271-22.058V39.239c0-12.163,13.132-22.057,29.271-22.057h179.674
	c16.142,0,29.271,9.895,29.271,22.057v93.931c0,12.163-13.129,22.058-29.271,22.058H42.895z"/>
<path fill="#C5BD72" d="M27.77,78.468V55.942h8.451c1.722,0,3.102,0.229,4.142,0.684c1.04,0.456,1.854,1.158,2.443,2.105
	c0.588,0.948,0.883,1.939,0.883,2.974c0,0.963-0.261,1.87-0.783,2.72c-0.522,0.851-1.312,1.537-2.366,2.059
	c1.362,0.4,2.409,1.08,3.142,2.043c0.733,0.963,1.099,2.101,1.099,3.412c0,1.055-0.223,2.035-0.668,2.942s-0.996,1.606-1.652,2.098
	c-0.655,0.492-1.477,0.863-2.466,1.114c-0.988,0.251-2.199,0.376-3.635,0.376H27.77z M30.751,65.408h4.87
	c1.322,0,2.27-0.087,2.844-0.261c0.758-0.226,1.329-0.6,1.713-1.122c0.385-0.523,0.576-1.178,0.576-1.968
	c0-0.747-0.179-1.405-0.537-1.974c-0.359-0.567-0.871-0.958-1.537-1.167s-1.808-0.314-3.427-0.314h-4.502V65.408z M30.751,75.809
	h5.607c0.964,0,1.64-0.035,2.029-0.107c0.686-0.123,1.26-0.328,1.722-0.615c0.46-0.287,0.839-0.704,1.137-1.252
	c0.296-0.547,0.445-1.18,0.445-1.897c0-0.84-0.216-1.57-0.646-2.19c-0.429-0.62-1.025-1.054-1.789-1.307
	c-0.764-0.25-1.861-0.375-3.297-0.375h-5.208V75.809z"/>
<path fill="#C5BD72" d="M59.699,73.212l2.858,0.354c-0.45,1.669-1.286,2.966-2.504,3.887c-1.22,0.923-2.777,1.384-4.672,1.384
	c-2.387,0-4.278-0.735-5.678-2.206c-1.397-1.47-2.098-3.531-2.098-6.185c0-2.745,0.707-4.876,2.121-6.392
	c1.413-1.516,3.246-2.274,5.501-2.274c2.182,0,3.965,0.743,5.347,2.228c1.383,1.486,2.075,3.575,2.075,6.269
	c0,0.165-0.006,0.41-0.017,0.738H50.465c0.102,1.793,0.61,3.166,1.521,4.119c0.911,0.952,2.049,1.428,3.41,1.428
	c1.015,0,1.88-0.266,2.597-0.799C58.711,75.231,59.279,74.381,59.699,73.212z M50.618,68.742h9.111
	c-0.122-1.373-0.471-2.402-1.044-3.088c-0.882-1.065-2.023-1.598-3.427-1.598c-1.271,0-2.338,0.425-3.203,1.275
	C51.189,66.18,50.712,67.318,50.618,68.742z"/>
<path fill="#C5BD72" d="M79.061,78.468l-5.979-22.525h3.059l3.427,14.767c0.368,1.547,0.686,3.083,0.953,4.609
	c0.573-2.408,0.911-3.795,1.013-4.164l4.287-15.212h3.597l3.227,11.401c0.809,2.828,1.393,5.486,1.752,7.975
	c0.286-1.424,0.66-3.058,1.121-4.902l3.534-14.474h2.996L95.87,78.468h-2.873l-4.748-17.163c-0.399-1.434-0.636-2.315-0.707-2.643
	c-0.235,1.035-0.457,1.915-0.661,2.643l-4.778,17.163H79.061z"/>
<path fill="#C5BD72" d="M104.89,78.468V55.942h16.286v2.659H107.87V65.5h12.461v2.643H107.87v7.667h13.829v2.659H104.89z"/>
<path fill="#C5BD72" d="M125.694,78.468V55.942h2.98v19.867h11.094v2.659H125.694z"/>
<path fill="#C5BD72" d="M159.39,70.57l2.982,0.752c-0.625,2.449-1.75,4.316-3.374,5.601c-1.623,1.286-3.607,1.929-5.953,1.929
	c-2.428,0-4.403-0.495-5.924-1.483c-1.521-0.989-2.679-2.42-3.472-4.295c-0.795-1.874-1.192-3.888-1.192-6.038
	c0-2.346,0.449-4.393,1.345-6.139c0.896-1.747,2.173-3.073,3.827-3.979c1.654-0.907,3.476-1.361,5.463-1.361
	c2.253,0,4.148,0.574,5.684,1.721c1.537,1.147,2.608,2.761,3.212,4.84l-2.934,0.692c-0.523-1.639-1.281-2.833-2.274-3.581
	c-0.993-0.748-2.243-1.122-3.749-1.122c-1.731,0-3.179,0.416-4.343,1.245c-1.161,0.83-1.978,1.943-2.449,3.342
	c-0.472,1.399-0.707,2.84-0.707,4.326c0,1.916,0.278,3.588,0.838,5.017c0.558,1.43,1.426,2.497,2.604,3.204
	c1.179,0.707,2.453,1.061,3.827,1.061c1.669,0,3.082-0.482,4.239-1.445C158.197,73.894,158.98,72.466,159.39,70.57z"/>
<path fill="#C5BD72" d="M165.137,67.497c0-3.739,1.005-6.666,3.012-8.781c2.009-2.115,4.601-3.173,7.775-3.173
	c2.079,0,3.954,0.497,5.624,1.49c1.67,0.994,2.942,2.379,3.817,4.157c0.877,1.776,1.315,3.793,1.315,6.046
	c0,2.284-0.462,4.328-1.383,6.13c-0.923,1.803-2.229,3.168-3.92,4.095c-1.689,0.927-3.512,1.391-5.469,1.391
	c-2.121,0-4.016-0.513-5.687-1.537c-1.669-1.025-2.934-2.423-3.794-4.195C165.567,71.349,165.137,69.475,165.137,67.497z
	 M168.21,67.543c0,2.715,0.731,4.853,2.19,6.415c1.46,1.563,3.29,2.344,5.493,2.344c2.243,0,4.09-0.789,5.539-2.367
	c1.449-1.577,2.174-3.815,2.174-6.714c0-1.833-0.31-3.434-0.93-4.802c-0.619-1.368-1.526-2.429-2.72-3.181
	c-1.193-0.753-2.533-1.13-4.018-1.13c-2.109,0-3.926,0.726-5.447,2.175C168.972,61.732,168.21,64.152,168.21,67.543z"/>
<path fill="#C5BD72" d="M190.428,78.468V55.942h4.489l5.33,15.949c0.494,1.486,0.851,2.597,1.076,3.334
	c0.255-0.82,0.654-2.023,1.198-3.61l5.393-15.673h4.012v22.525h-2.873V59.615l-6.547,18.853h-2.688l-6.516-19.176v19.176H190.428z"
	/>
<path fill="#C5BD72" d="M216.796,78.468V55.942h16.288v2.659h-13.308V65.5h12.462v2.643h-12.462v7.667h13.83v2.659H216.796z"/>
<path fill="#C5BD72" d="M36.157,113.799l0.521,3.187c-1.016,0.213-1.924,0.32-2.726,0.32c-1.309,0-2.323-0.208-3.045-0.622
	c-0.721-0.414-1.229-0.958-1.521-1.633c-0.295-0.675-0.441-2.094-0.441-4.259v-12.24h-2.645v-2.804h2.645v-5.27l3.586-2.165v7.435
	h3.626v2.804h-3.626v12.442c0,1.028,0.063,1.689,0.19,1.983c0.127,0.293,0.333,0.527,0.621,0.701c0.287,0.174,0.697,0.26,1.232,0.26
	C34.976,113.938,35.503,113.892,36.157,113.799z"/>
<path fill="#C5BD72" d="M38.342,106.386c0-3.941,1.095-6.859,3.285-8.755c1.83-1.576,4.061-2.365,6.692-2.365
	c2.925,0,5.316,0.958,7.173,2.875c1.855,1.917,2.784,4.565,2.784,7.944c0,2.738-0.41,4.893-1.231,6.461
	c-0.822,1.57-2.017,2.789-3.587,3.657c-1.569,0.868-3.281,1.303-5.139,1.303c-2.979,0-5.386-0.956-7.224-2.866
	C39.26,112.729,38.342,109.979,38.342,106.386z M42.048,106.386c0,2.725,0.594,4.764,1.784,6.121
	c1.188,1.355,2.685,2.033,4.487,2.033c1.79,0,3.279-0.682,4.468-2.044c1.188-1.361,1.783-3.439,1.783-6.23
	c0-2.632-0.599-4.625-1.793-5.981c-1.196-1.355-2.683-2.033-4.458-2.033c-1.803,0-3.299,0.675-4.487,2.023
	C42.642,101.624,42.048,103.661,42.048,106.386z"/>
<path fill="#C5BD72" d="M74.245,117.024V87.652h5.85l6.953,20.797c0.641,1.937,1.109,3.386,1.402,4.348
	c0.333-1.068,0.854-2.638,1.563-4.708l7.032-20.437h5.229v29.372h-3.745V92.441l-8.536,24.583h-3.506l-8.495-25.004v25.004H74.245z"
	/>
<path fill="#C5BD72" d="M116.821,117.024v-12.442L105.5,87.652h4.729l5.791,8.855c1.068,1.657,2.063,3.313,2.984,4.969
	c0.882-1.536,1.95-3.266,3.207-5.188l5.688-8.636h4.529l-11.721,16.93v12.442H116.821z"/>
<text transform="matrix(0.9883 0 0 1 135.5244 115.9824)" fill="#C5BD72" font-family="'MyriadPro-Regular'" font-size="29.2442">RESUME</text>
</svg>
