<?xml version="1.0" encoding="utf-8"?>
<!-- Generator: Adobe Illustrator 16.0.0, SVG Export Plug-In . SVG Version: 6.00 Build 0)  -->
<!DOCTYPE svg PUBLIC "-//W3C//DTD SVG 1.1//EN" "http://www.w3.org/Graphics/SVG/1.1/DTD/svg11.dtd">
<svg version="1.1" id="Camada_1" xmlns="http://www.w3.org/2000/svg" xmlns:xlink="http://www.w3.org/1999/xlink" x="0px" y="0px"
	 width="159.546px" height="248.025px" viewBox="0 0 159.546 248.025" enable-background="new 0 0 159.546 248.025"
	 xml:space="preserve">
<g>
	<polygon fill="#D8AC8D" points="99.343,165.174 100.808,177.404 79.773,206.475 58.741,177.414 60.206,165.174 	"/>
	<g>
		<path fill="#D8AC8D" d="M22.054,117.731c0,6.019-4.039,10.899-9.025,10.899c-4.981,0-9.024-4.88-9.024-10.899
			c0-6.021,4.043-10.9,9.024-10.9C18.015,106.831,22.054,111.711,22.054,117.731z"/>
		<ellipse fill="#D8AC8D" cx="146.521" cy="117.731" rx="9.024" ry="10.899"/>
	</g>
	<path fill="#E5C4A6" d="M86.743,177.368l32.306-11.597c20.049-4.216,21.104-18.566,21.104-18.566l10.19-42.222l-15.792-56.572
		l-58.388-12.65L37.763,54.735L9.205,104.983l10.189,42.222c0,0,1.053,14.351,21.105,18.566l32.306,11.597
		C72.806,177.368,79.01,180.145,86.743,177.368z"/>
	<path fill="#2B1D16" d="M71.211,11.559c0.015,0,0.032,0.003,0.048,0.005c12.412-0.748,25.435-2.616,34.461-11.372
		c0.343-0.332,1.101-0.239,1.182,0.313c0.676,4.625-0.563,8.801-2.286,13.032c7.794,1.143,14.907-3.172,21.38-7.019
		c0.393-0.231,0.925-0.017,1.041,0.422c1.129,4.324,0.259,9.295-2.162,13.156c14.673,5.969,26.902,18.7,31.476,34.015
		c3.446,11.542,3.778,24.414,2.535,36.323c-1.078,10.332-3.186,23.023-11.341,30.352c-0.462,0.415-1.183,0.132-1.206-0.499
		c-0.387-9.864,0.153-19.858-1.09-29.671c-1.199-9.496-4.515-18.062-9.909-25.876c-0.956,5.532-4.616,10.733-7.411,15.384
		c-0.301,0.5-1.161,0.448-1.293-0.169c-1.644-7.707-3.489-16.234-8.379-22.634c-3.262-4.267-7.685-6.982-12.461-9.108
		c-0.323,3.534-1.219,7.018-2.81,10.341c-5.855,12.22-18.256,18.521-31.079,20.953c-0.624,0.119-1.078-0.462-0.795-1.038
		c2.486-5.087,4.157-10.244,4.528-15.848c-14.198,13.225-32.628,18.708-49.738,27.18c-0.513,0.254-1.254-0.166-1.037-0.796
		c1.761-5.112,4.07-9.981,6.461-14.815c-7.319,4.89-13.048,11.38-15.177,20.211c-2.038,8.445-1.771,17.265-2.146,25.888
		c-0.031,0.743-0.908,0.91-1.317,0.357C2.805,107.289-1.366,90.259,0.392,73.794c2.66-24.913,17.81-46.691,41.449-56.261
		C41.841,17.533,60.48,10.893,71.211,11.559z"/>
	<g>
		<path fill="#C5BD72" d="M58.687,178.602c0,0-45.658,13.342-49.425,68.617H79.83v-40.744L58.687,178.602z"/>
		<path fill="#C5BD72" d="M100.866,178.602c0,0,51.978,18.227,49.421,68.617H79.719v-40.744L100.866,178.602z"/>
	</g>
	<g>
		<polygon fill="#162817" points="58.743,177.413 79.775,206.475 66.109,201.07 56.09,204.9 		"/>
		<polygon fill="#162817" points="100.808,177.413 79.775,206.475 93.443,201.07 103.459,204.9 		"/>
	</g>
	<path fill="#162817" d="M79.773,248.025c-0.45,0-0.806-0.357-0.806-0.807v-40.832c0-0.447,0.355-0.809,0.806-0.809
		c0.448,0,0.808,0.361,0.808,0.809v40.832C80.581,247.668,80.222,248.025,79.773,248.025"/>
</g>
</svg>
