<?xml version="1.0" encoding="utf-8"?>
<!-- Generator: Adobe Illustrator 16.0.0, SVG Export Plug-In . SVG Version: 6.00 Build 0)  -->
<!DOCTYPE svg PUBLIC "-//W3C//DTD SVG 1.1//EN" "http://www.w3.org/Graphics/SVG/1.1/DTD/svg11.dtd">
<svg version="1.1" id="Camada_1" xmlns="http://www.w3.org/2000/svg" xmlns:xlink="http://www.w3.org/1999/xlink" x="0px" y="0px"
	 width="330.092px" height="45.243px" viewBox="0 0 330.092 45.243" enable-background="new 0 0 330.092 45.243"
	 xml:space="preserve">
<path fill="#C5BD72" d="M12.708,28.835v16.218c0,0.123-0.06,0.19-0.176,0.19H0.209C0.071,45.243,0,45.176,0,45.053V0.193
	C0.023,0.066,0.093,0,0.209,0h49.469c0.137,0.027,0.207,0.084,0.207,0.193v44.859c0,0.123-0.07,0.19-0.207,0.19h-12.32
	c-0.123,0-0.181-0.067-0.181-0.19V28.835H12.708z M12.708,16.501h24.469v-4.167H12.708V16.501z"/>
<path fill="#C5BD72" d="M102.491,0c0.141,0.027,0.209,0.097,0.209,0.223v44.83c0,0.123-0.068,0.19-0.209,0.19H90.167
	c-0.116,0-0.174-0.067-0.174-0.19V12.464H65.522v32.589c0,0.123-0.059,0.19-0.173,0.19H53.021c-0.133,0-0.203-0.067-0.203-0.19
	V0.223C52.836,0.075,52.907,0,53.021,0H102.491z"/>
<path fill="#C5BD72" d="M123.824,12.65h-17.986c-0.134,0-0.204-0.063-0.204-0.187V0.193C105.653,0.066,105.719,0,105.838,0h49.499
	c0.116,0.027,0.174,0.084,0.174,0.193v12.271c0,0.123-0.058,0.187-0.174,0.187h-18.104v32.402c0,0.123-0.07,0.19-0.203,0.19h-13
	c-0.135,0-0.205-0.067-0.205-0.19V12.65z"/>
<path fill="#C5BD72" d="M208.124,0c0.132,0.027,0.201,0.097,0.201,0.223v44.83c0,0.123-0.069,0.19-0.201,0.19h-49.469
	c-0.141,0-0.209-0.067-0.209-0.19V0.223C158.464,0.075,158.533,0,158.655,0H208.124z M171.15,32.908h24.471V12.365H171.15V32.908z"
	/>
<path fill="#C5BD72" d="M260.934,0c0.139,0.027,0.202,0.097,0.202,0.223v44.83c0,0.123-0.063,0.19-0.202,0.19h-12.319
	c-0.12,0-0.177-0.067-0.177-0.19V12.464h-24.471v32.589c0,0.123-0.057,0.19-0.177,0.19h-12.325c-0.137,0-0.206-0.067-0.206-0.19
	V0.223C211.28,0.075,211.35,0,211.465,0H260.934z"/>
<path fill="#C5BD72" d="M277.069,0c0.14,0.027,0.212,0.084,0.212,0.193v44.859c0,0.123-0.072,0.19-0.212,0.19h-12.788
	c-0.136,0-0.206-0.067-0.206-0.19V0.193C264.097,0.066,264.165,0,264.281,0H277.069z"/>
<path fill="#C5BD72" d="M329.886,0c0.133,0.027,0.206,0.097,0.206,0.223v44.83c0,0.123-0.073,0.19-0.206,0.19h-49.47
	c-0.132,0-0.204-0.067-0.204-0.19V0.223C280.232,0.075,280.302,0,280.416,0H329.886z M292.919,32.908h24.47V12.365h-24.47V32.908z"
	/>
</svg>
