<?xml version="1.0" encoding="utf-8"?>
<!-- Generator: Adobe Illustrator 16.0.0, SVG Export Plug-In . SVG Version: 6.00 Build 0)  -->
<!DOCTYPE svg PUBLIC "-//W3C//DTD SVG 1.1//EN" "http://www.w3.org/Graphics/SVG/1.1/DTD/svg11.dtd">
<svg version="1.1" id="Camada_1" xmlns="http://www.w3.org/2000/svg" xmlns:xlink="http://www.w3.org/1999/xlink" x="0px" y="0px"
	 width="330.092px" height="125.192px" viewBox="0 0 330.092 125.192" enable-background="new 0 0 330.092 125.192"
	 xml:space="preserve">
<path fill="#C5BD72" d="M137.99,0c0.377,0.062,0.568,0.232,0.568,0.526v33.087c0,0.35-0.191,0.524-0.568,0.524L35.294,34.141v56.917
	h67.977V79.534H46.95c-0.33,0-0.488-0.178-0.488-0.524V46.532c0.05-0.406,0.216-0.612,0.488-0.612h91.04
	c0.377,0.063,0.568,0.263,0.568,0.612v78.136c0,0.35-0.191,0.524-0.568,0.524H0.574c-0.383,0-0.574-0.175-0.574-0.524V0.526
	C0.059,0.178,0.25,0,0.574,0H137.99z"/>
<path fill="#C5BD72" d="M182.819,0c0.373,0.062,0.567,0.232,0.567,0.526v124.142c0,0.35-0.194,0.524-0.567,0.524H147.28
	c-0.383,0-0.574-0.175-0.574-0.524V0.526C146.764,0.178,146.955,0,147.28,0H182.819z"/>
<path fill="#C5BD72" d="M329.524,0c0.377,0.062,0.567,0.261,0.567,0.615v124.053c0,0.35-0.19,0.524-0.567,0.524H192.108
	c-0.383,0-0.567-0.175-0.567-0.524V0.615C191.59,0.205,191.782,0,192.108,0H329.524z M226.832,91.058h67.969V34.222h-67.969V91.058z
	"/>
</svg>
