<?xml version="1.0" encoding="utf-8"?>
<!-- Generator: Adobe Illustrator 16.0.0, SVG Export Plug-In . SVG Version: 6.00 Build 0)  -->
<!DOCTYPE svg PUBLIC "-//W3C//DTD SVG 1.1//EN" "http://www.w3.org/Graphics/SVG/1.1/DTD/svg11.dtd">
<svg version="1.1" id="Camada_1" xmlns="http://www.w3.org/2000/svg" xmlns:xlink="http://www.w3.org/1999/xlink" x="0px" y="0px"
	 width="330.245px" height="95.708px" viewBox="0 0 330.245 95.708" enable-background="new 0 0 330.245 95.708"
	 xml:space="preserve">
<path fill="#C5BD72" d="M105.493,0c0.29,0.042,0.438,0.178,0.438,0.399v25.297c0,0.268-0.147,0.399-0.438,0.399h-78.51v8.545h78.51
	c0.29,0.044,0.438,0.196,0.438,0.466V95.31c0,0.266-0.147,0.398-0.438,0.398H0.441C0.147,95.708,0,95.575,0,95.31V70.013
	c0.047-0.267,0.191-0.4,0.441-0.4h78.51v-8.608H0.441C0.147,61.004,0,60.87,0,60.601V0.399C0.047,0.135,0.191,0,0.441,0H105.493z"/>
<path fill="#C5BD72" d="M112.163,0.399C112.202,0.135,112.348,0,112.596,0H217.72c0.241,0.042,0.369,0.178,0.369,0.399v25.297
	c0,0.268-0.128,0.399-0.369,0.399h-78.517v8.813h78.517c0.241,0.043,0.369,0.173,0.369,0.398v25.294c0,0.27-0.128,0.403-0.369,0.403
	h-78.517v8.608h78.517c0.241,0.042,0.369,0.178,0.369,0.4V95.31c0,0.266-0.128,0.398-0.369,0.398H112.596
	c-0.285,0-0.433-0.133-0.433-0.398V0.399z"/>
<path fill="#C5BD72" d="M224.316,0.399C224.361,0.135,224.511,0,224.752,0h105.056c0.296,0.042,0.438,0.178,0.438,0.399v60.202
	c0,0.27-0.142,0.403-0.438,0.403h-34.269v0.266c22.387,13.926,33.964,21.268,34.706,22.024V95.31c0,0.266-0.142,0.398-0.438,0.398
	h-25.796c-0.413,0-10.073-6.206-28.977-18.62c-15.198-10.1-23.11-15.241-23.737-15.42V95.31c0,0.266-0.127,0.398-0.368,0.398
	h-26.178c-0.287,0-0.436-0.133-0.436-0.398V0.399z M251.298,34.908h51.905v-8.813h-51.905V34.908z"/>
</svg>
