<?xml version="1.0" encoding="utf-8"?>
<!-- Generator: Adobe Illustrator 16.0.0, SVG Export Plug-In . SVG Version: 6.00 Build 0)  -->
<!DOCTYPE svg PUBLIC "-//W3C//DTD SVG 1.1//EN" "http://www.w3.org/Graphics/SVG/1.1/DTD/svg11.dtd">
<svg version="1.1" id="Camada_1" xmlns="http://www.w3.org/2000/svg" xmlns:xlink="http://www.w3.org/1999/xlink" x="0px" y="0px"
	 width="330.245px" height="281.161px" viewBox="0 0 330.245 281.161" enable-background="new 0 0 330.245 281.161"
	 xml:space="preserve">
<g>
	<g>
		<path fill="#CBC374" d="M105.493,0c0.29,0.042,0.438,0.178,0.438,0.399v25.297c0,0.268-0.147,0.399-0.438,0.399h-78.51v8.545
			h78.51c0.29,0.044,0.438,0.196,0.438,0.466V95.31c0,0.266-0.147,0.398-0.438,0.398H0.441C0.147,95.708,0,95.575,0,95.31V70.013
			c0.047-0.267,0.191-0.4,0.441-0.4h78.51v-8.608H0.441C0.147,61.004,0,60.87,0,60.601V0.399C0.047,0.135,0.191,0,0.441,0H105.493z"
			/>
		<path fill="#CBC374" d="M112.163,0.399C112.202,0.135,112.348,0,112.596,0H217.72c0.241,0.042,0.369,0.178,0.369,0.399v25.297
			c0,0.268-0.128,0.399-0.369,0.399h-78.517v8.813h78.517c0.241,0.043,0.369,0.173,0.369,0.398v25.294
			c0,0.27-0.128,0.403-0.369,0.403h-78.517v8.608h78.517c0.241,0.042,0.369,0.178,0.369,0.4V95.31c0,0.266-0.128,0.398-0.369,0.398
			H112.596c-0.285,0-0.433-0.133-0.433-0.398V0.399z"/>
		<path fill="#CBC374" d="M224.316,0.399C224.361,0.135,224.511,0,224.752,0h105.056c0.296,0.042,0.438,0.178,0.438,0.399v60.202
			c0,0.27-0.142,0.403-0.438,0.403h-34.269v0.266c22.387,13.926,33.964,21.268,34.706,22.024V95.31c0,0.266-0.142,0.398-0.438,0.398
			h-25.796c-0.413,0-10.073-6.207-28.977-18.621c-15.198-10.099-23.11-15.241-23.737-15.42V95.31c0,0.266-0.127,0.398-0.368,0.398
			h-26.178c-0.287,0-0.436-0.133-0.436-0.398V0.399z M251.298,34.908h51.905v-8.813h-51.905V34.908z"/>
		<path fill="#CBC374" d="M137.99,102.829c0.377,0.062,0.568,0.232,0.568,0.526v33.087c0,0.35-0.191,0.524-0.568,0.524
			L35.294,136.97v56.917h67.977v-11.523H46.95c-0.33,0-0.488-0.178-0.488-0.524v-32.478c0.05-0.406,0.216-0.612,0.488-0.612h91.04
			c0.377,0.063,0.568,0.263,0.568,0.612v78.136c0,0.35-0.191,0.524-0.568,0.524H0.574c-0.383,0-0.574-0.175-0.574-0.524V103.355
			c0.059-0.348,0.25-0.526,0.574-0.526H137.99z"/>
		<path fill="#CBC374" d="M182.819,102.829c0.373,0.062,0.567,0.232,0.567,0.526v124.142c0,0.35-0.194,0.524-0.567,0.524H147.28
			c-0.383,0-0.574-0.175-0.574-0.524V103.355c0.058-0.348,0.249-0.526,0.574-0.526H182.819z"/>
		<path fill="#CBC374" d="M329.524,102.829c0.377,0.062,0.567,0.261,0.567,0.615v124.053c0,0.35-0.19,0.524-0.567,0.524H192.108
			c-0.383,0-0.567-0.175-0.567-0.524V103.444c0.049-0.41,0.241-0.615,0.567-0.615H329.524z M226.832,193.887h67.969v-56.836h-67.969
			V193.887z"/>
		<path fill="#CBC374" d="M12.708,264.753v16.218c0,0.123-0.06,0.19-0.176,0.19H0.209c-0.138,0-0.209-0.067-0.209-0.19v-44.859
			c0.023-0.127,0.093-0.193,0.209-0.193h49.469c0.137,0.027,0.207,0.084,0.207,0.193v44.859c0,0.123-0.07,0.19-0.207,0.19h-12.32
			c-0.123,0-0.181-0.067-0.181-0.19v-16.218H12.708z M12.708,252.419h24.469v-4.167H12.708V252.419z"/>
		<path fill="#CBC374" d="M102.491,235.918c0.141,0.027,0.209,0.097,0.209,0.223v44.83c0,0.123-0.068,0.19-0.209,0.19H90.167
			c-0.116,0-0.174-0.067-0.174-0.19v-32.589H65.522v32.589c0,0.123-0.059,0.19-0.173,0.19H53.021c-0.133,0-0.203-0.067-0.203-0.19
			v-44.83c0.018-0.147,0.089-0.223,0.203-0.223H102.491z"/>
		<path fill="#CBC374" d="M123.824,248.568h-17.986c-0.134,0-0.204-0.063-0.204-0.187v-12.271c0.02-0.127,0.085-0.193,0.204-0.193
			h49.499c0.116,0.027,0.174,0.084,0.174,0.193v12.271c0,0.123-0.058,0.187-0.174,0.187h-18.104v32.402
			c0,0.123-0.07,0.19-0.203,0.19h-13c-0.135,0-0.205-0.067-0.205-0.19V248.568z"/>
		<path fill="#CBC374" d="M208.124,235.918c0.132,0.027,0.201,0.097,0.201,0.223v44.83c0,0.123-0.069,0.19-0.201,0.19h-49.469
			c-0.141,0-0.209-0.067-0.209-0.19v-44.83c0.018-0.147,0.087-0.223,0.209-0.223H208.124z M171.15,268.826h24.471v-20.543H171.15
			V268.826z"/>
		<path fill="#CBC374" d="M260.934,235.918c0.139,0.027,0.202,0.097,0.202,0.223v44.83c0,0.123-0.063,0.19-0.202,0.19h-12.319
			c-0.12,0-0.177-0.067-0.177-0.19v-32.589h-24.471v32.589c0,0.123-0.057,0.19-0.177,0.19h-12.325c-0.137,0-0.206-0.067-0.206-0.19
			v-44.83c0.021-0.147,0.091-0.223,0.206-0.223H260.934z"/>
		<path fill="#CBC374" d="M277.069,235.918c0.14,0.027,0.212,0.084,0.212,0.193v44.859c0,0.123-0.072,0.19-0.212,0.19h-12.788
			c-0.136,0-0.206-0.067-0.206-0.19v-44.859c0.021-0.127,0.09-0.193,0.206-0.193H277.069z"/>
		<path fill="#CBC374" d="M329.886,235.918c0.133,0.027,0.206,0.097,0.206,0.223v44.83c0,0.123-0.073,0.19-0.206,0.19h-49.47
			c-0.132,0-0.204-0.067-0.204-0.19v-44.83c0.021-0.147,0.09-0.223,0.204-0.223H329.886z M292.919,268.826h24.47v-20.543h-24.47
			V268.826z"/>
	</g>
	<g>
		<path fill="#CBC374" d="M105.493,0c0.29,0.042,0.438,0.178,0.438,0.399v25.297c0,0.268-0.147,0.399-0.438,0.399h-78.51v8.545
			h78.51c0.29,0.044,0.438,0.196,0.438,0.466V95.31c0,0.266-0.147,0.398-0.438,0.398H0.441C0.147,95.708,0,95.575,0,95.31V70.013
			c0.047-0.267,0.191-0.4,0.441-0.4h78.51v-8.608H0.441C0.147,61.004,0,60.87,0,60.601V0.399C0.047,0.135,0.191,0,0.441,0H105.493z"
			/>
		<path fill="#CBC374" d="M112.163,0.399C112.202,0.135,112.348,0,112.596,0H217.72c0.241,0.042,0.369,0.178,0.369,0.399v25.297
			c0,0.268-0.128,0.399-0.369,0.399h-78.517v8.813h78.517c0.241,0.043,0.369,0.173,0.369,0.398v25.294
			c0,0.27-0.128,0.403-0.369,0.403h-78.517v8.608h78.517c0.241,0.042,0.369,0.178,0.369,0.4V95.31c0,0.266-0.128,0.398-0.369,0.398
			H112.596c-0.285,0-0.433-0.133-0.433-0.398V0.399z"/>
		<path fill="#CBC374" d="M224.316,0.399C224.361,0.135,224.511,0,224.752,0h105.056c0.296,0.042,0.438,0.178,0.438,0.399v60.202
			c0,0.27-0.142,0.403-0.438,0.403h-34.269v0.266c22.387,13.926,33.964,21.268,34.706,22.024V95.31c0,0.266-0.142,0.398-0.438,0.398
			h-25.796c-0.413,0-10.073-6.207-28.977-18.621c-15.198-10.099-23.11-15.241-23.737-15.42V95.31c0,0.266-0.127,0.398-0.368,0.398
			h-26.178c-0.287,0-0.436-0.133-0.436-0.398V0.399z M251.298,34.908h51.905v-8.813h-51.905V34.908z"/>
		<path fill="#CBC374" d="M137.99,102.829c0.377,0.062,0.568,0.232,0.568,0.526v33.087c0,0.35-0.191,0.524-0.568,0.524
			L35.294,136.97v56.917h67.977v-11.523H46.95c-0.33,0-0.488-0.178-0.488-0.524v-32.478c0.05-0.406,0.216-0.612,0.488-0.612h91.04
			c0.377,0.063,0.568,0.263,0.568,0.612v78.136c0,0.35-0.191,0.524-0.568,0.524H0.574c-0.383,0-0.574-0.175-0.574-0.524V103.355
			c0.059-0.348,0.25-0.526,0.574-0.526H137.99z"/>
		<path fill="#CBC374" d="M182.819,102.829c0.373,0.062,0.567,0.232,0.567,0.526v124.142c0,0.35-0.194,0.524-0.567,0.524H147.28
			c-0.383,0-0.574-0.175-0.574-0.524V103.355c0.058-0.348,0.249-0.526,0.574-0.526H182.819z"/>
		<path fill="#CBC374" d="M329.524,102.829c0.377,0.062,0.567,0.261,0.567,0.615v124.053c0,0.35-0.19,0.524-0.567,0.524H192.108
			c-0.383,0-0.567-0.175-0.567-0.524V103.444c0.049-0.41,0.241-0.615,0.567-0.615H329.524z M226.832,193.887h67.969v-56.836h-67.969
			V193.887z"/>
		<path fill="#CBC374" d="M12.708,264.753v16.218c0,0.123-0.06,0.19-0.176,0.19H0.209c-0.138,0-0.209-0.067-0.209-0.19v-44.859
			c0.023-0.127,0.093-0.193,0.209-0.193h49.469c0.137,0.027,0.207,0.084,0.207,0.193v44.859c0,0.123-0.07,0.19-0.207,0.19h-12.32
			c-0.123,0-0.181-0.067-0.181-0.19v-16.218H12.708z M12.708,252.419h24.469v-4.167H12.708V252.419z"/>
		<path fill="#CBC374" d="M102.491,235.918c0.141,0.027,0.209,0.097,0.209,0.223v44.83c0,0.123-0.068,0.19-0.209,0.19H90.167
			c-0.116,0-0.174-0.067-0.174-0.19v-32.589H65.522v32.589c0,0.123-0.059,0.19-0.173,0.19H53.021c-0.133,0-0.203-0.067-0.203-0.19
			v-44.83c0.018-0.147,0.089-0.223,0.203-0.223H102.491z"/>
		<path fill="#CBC374" d="M123.824,248.568h-17.986c-0.134,0-0.204-0.063-0.204-0.187v-12.271c0.02-0.127,0.085-0.193,0.204-0.193
			h49.499c0.116,0.027,0.174,0.084,0.174,0.193v12.271c0,0.123-0.058,0.187-0.174,0.187h-18.104v32.402
			c0,0.123-0.07,0.19-0.203,0.19h-13c-0.135,0-0.205-0.067-0.205-0.19V248.568z"/>
		<path fill="#CBC374" d="M208.124,235.918c0.132,0.027,0.201,0.097,0.201,0.223v44.83c0,0.123-0.069,0.19-0.201,0.19h-49.469
			c-0.141,0-0.209-0.067-0.209-0.19v-44.83c0.018-0.147,0.087-0.223,0.209-0.223H208.124z M171.15,268.826h24.471v-20.543H171.15
			V268.826z"/>
		<path fill="#CBC374" d="M260.934,235.918c0.139,0.027,0.202,0.097,0.202,0.223v44.83c0,0.123-0.063,0.19-0.202,0.19h-12.319
			c-0.12,0-0.177-0.067-0.177-0.19v-32.589h-24.471v32.589c0,0.123-0.057,0.19-0.177,0.19h-12.325c-0.137,0-0.206-0.067-0.206-0.19
			v-44.83c0.021-0.147,0.091-0.223,0.206-0.223H260.934z"/>
		<path fill="#CBC374" d="M277.069,235.918c0.14,0.027,0.212,0.084,0.212,0.193v44.859c0,0.123-0.072,0.19-0.212,0.19h-12.788
			c-0.136,0-0.206-0.067-0.206-0.19v-44.859c0.021-0.127,0.09-0.193,0.206-0.193H277.069z"/>
		<path fill="#CBC374" d="M329.886,235.918c0.133,0.027,0.206,0.097,0.206,0.223v44.83c0,0.123-0.073,0.19-0.206,0.19h-49.47
			c-0.132,0-0.204-0.067-0.204-0.19v-44.83c0.021-0.147,0.09-0.223,0.204-0.223H329.886z M292.919,268.826h24.47v-20.543h-24.47
			V268.826z"/>
	</g>
</g>
</svg>
