<?xml version="1.0" encoding="utf-8"?>
<!-- Generator: Adobe Illustrator 16.0.0, SVG Export Plug-In . SVG Version: 6.00 Build 0)  -->
<!DOCTYPE svg PUBLIC "-//W3C//DTD SVG 1.1//EN" "http://www.w3.org/Graphics/SVG/1.1/DTD/svg11.dtd">
<svg version="1.1" id="Camada_2" xmlns="http://www.w3.org/2000/svg" xmlns:xlink="http://www.w3.org/1999/xlink" x="0px" y="0px"
	 width="465.209px" height="613.225px" viewBox="0 0 465.209 613.225" enable-background="new 0 0 465.209 613.225"
	 xml:space="preserve">
<g>
	<g>
		<path d="M216.25,219.975c0,0,0.868,0.118,2.388,0.323c0.753,0.1,1.667,0.22,2.717,0.359c1.045,0.124,2.224,0.264,3.51,0.417
			c1.281,0.155,2.671,0.289,4.137,0.429c1.459,0.179,3.011,0.252,4.599,0.416c1.593,0.101,3.237,0.204,4.909,0.31
			c1.672,0.028,3.366,0.191,5.062,0.154c0.847,0.013,1.694,0.025,2.538,0.038c0.845,0.01,1.682-0.036,2.516-0.048
			c0.833-0.024,1.66-0.038,2.479-0.042c0.815-0.053,1.62-0.105,2.412-0.156c0.795-0.042,1.577-0.083,2.342-0.124
			c0.762-0.081,1.506-0.161,2.231-0.238c1.454-0.145,2.847-0.232,4.105-0.46c1.264-0.204,2.441-0.343,3.489-0.478
			c1.021-0.222,1.93-0.377,2.679-0.515c1.501-0.27,2.388-0.384,2.388-0.384s-0.756,0.438-2.131,1.137
			c-0.688,0.347-1.525,0.779-2.507,1.231c-0.998,0.391-2.137,0.817-3.395,1.245c-0.631,0.204-1.277,0.481-1.972,0.65
			c-0.694,0.175-1.412,0.356-2.15,0.542c-0.743,0.176-1.507,0.357-2.287,0.542c-0.787,0.139-1.597,0.25-2.419,0.379
			c-0.824,0.118-1.662,0.238-2.511,0.359c-0.853,0.072-1.716,0.135-2.588,0.188c-0.871,0.043-1.751,0.146-2.633,0.137
			c-0.883-0.001-1.77-0.003-2.655-0.005c-1.774,0.014-3.538-0.166-5.275-0.288c-0.869-0.049-1.722-0.198-2.568-0.302
			c-0.844-0.119-1.682-0.208-2.495-0.362c-1.627-0.311-3.202-0.581-4.669-0.968c-0.733-0.188-1.447-0.37-2.138-0.547
			c-0.682-0.208-1.34-0.41-1.972-0.604c-1.269-0.358-2.398-0.816-3.405-1.176c-1.001-0.389-1.862-0.75-2.563-1.075
			C217.011,220.428,216.25,219.975,216.25,219.975z"/>
	</g>
	<g>
		<path d="M334.75,226.475c0,0,0.335-0.568,1.074-1.445c0.375-0.431,0.831-0.967,1.417-1.51c0.576-0.557,1.25-1.168,2.044-1.766
			c0.784-0.612,1.694-1.198,2.69-1.779c1.011-0.549,2.108-1.101,3.313-1.526c1.198-0.436,2.483-0.804,3.831-1.005
			c1.341-0.246,2.743-0.281,4.137-0.239c1.391,0.112,2.791,0.279,4.104,0.692c1.327,0.35,2.567,0.893,3.712,1.483
			c1.137,0.607,2.172,1.29,3.078,2.015c0.468,0.345,0.881,0.727,1.276,1.097c0.39,0.376,0.786,0.713,1.108,1.097
			c0.671,0.739,1.26,1.427,1.712,2.093c0.48,0.64,0.868,1.215,1.145,1.72c0.576,0.991,0.859,1.575,0.859,1.575
			s-0.556-0.366-1.448-1.04c-0.431-0.351-1.012-0.714-1.628-1.163c-0.61-0.459-1.353-0.898-2.122-1.401
			c-0.377-0.264-0.802-0.485-1.227-0.73c-0.426-0.243-0.85-0.515-1.321-0.725c-0.908-0.483-1.89-0.915-2.906-1.31
			c-1.025-0.378-2.09-0.716-3.19-0.948c-1.094-0.264-2.229-0.383-3.362-0.46c-1.138-0.05-2.282-0.041-3.412,0.086
			c-1.131,0.104-2.244,0.308-3.322,0.55c-2.156,0.496-4.159,1.206-5.866,1.915c-1.717,0.692-3.125,1.401-4.126,1.9
			C335.325,226.158,334.75,226.475,334.75,226.475z"/>
	</g>
	<g>
		<path d="M334.75,230.475c0,0,0.532,0.048,1.431,0.165c0.899,0.119,2.169,0.301,3.663,0.553c0.742,0.13,1.547,0.271,2.397,0.42
			c0.841,0.158,1.727,0.325,2.644,0.498c1.813,0.352,3.746,0.728,5.679,1.103c0.962,0.179,1.923,0.357,2.869,0.533
			c0.947,0.129,1.877,0.34,2.78,0.472c0.901,0.113,1.779,0.307,2.611,0.402c0.84,0.115,1.633,0.225,2.365,0.325
			c0.733,0.063,1.417,0.154,2.03,0.235c0.614,0.08,1.145,0.085,1.595,0.134c0.896,0.074,1.436,0.16,1.436,0.16
			s-0.456,0.254-1.304,0.625c-0.425,0.168-0.941,0.448-1.559,0.603c-0.614,0.178-1.316,0.376-2.094,0.559
			c-0.776,0.16-1.623,0.256-2.528,0.37c-0.905,0.107-1.853,0.1-2.843,0.122c-0.987,0.005-1.995-0.082-3.025-0.164
			c-1.023-0.107-2.053-0.279-3.082-0.448c-1.014-0.232-2.04-0.42-3.019-0.714c-0.983-0.275-1.947-0.564-2.855-0.909
			c-1.832-0.644-3.477-1.42-4.852-2.146c-1.366-0.75-2.463-1.454-3.203-1.999C335.141,230.84,334.75,230.475,334.75,230.475z"/>
	</g>
	<g>
		<path d="M323.25,219.975c1.389,2.735,2.743,5.483,4.075,8.241l3.937,8.296l3.846,8.333l3.759,8.367
			c1.263,2.785,2.455,5.598,3.687,8.396l1.833,4.202c0.627,1.326,1.224,2.992,1.63,4.499c0.847,3.071,1.455,6.204,1.571,9.489
			c0.067,1.635-0.029,3.331-0.414,5.046c-0.394,1.699-1.099,3.505-2.492,4.987l0.176-0.215l-1.217,1.554
			c-0.394,0.534-0.856,0.979-1.283,1.469c-0.43,0.488-0.874,0.955-1.335,1.396c-0.458,0.446-0.903,0.913-1.378,1.331
			c-0.933,0.862-1.879,1.704-2.832,2.49c-0.48,0.397-0.947,0.788-1.354,1.143l-0.16,0.137c-0.015,0.017,0.011-0.003,0.009-0.01
			c0.003-0.011,0.001-0.026-0.007-0.043l-0.017-0.027l-0.071,0.13c-0.056,0.108-0.22,0.378-0.329,0.544
			c-0.124,0.169-0.241,0.345-0.376,0.504c-0.521,0.654-1.178,1.189-1.883,1.608c-0.356,0.208-0.719,0.396-1.1,0.525
			c-0.375,0.162-0.757,0.255-1.14,0.338c-0.385,0.106-0.761,0.133-1.14,0.168c-0.382,0.049-0.751,0.049-1.114,0.028
			c-0.745,0.006-1.431-0.136-2.131-0.242c-0.665-0.169-1.346-0.317-1.976-0.548c-0.616-0.25-1.271-0.443-1.85-0.744
			c-0.585-0.291-1.198-0.542-1.754-0.867l-1.681-0.954l-0.306-0.174l-0.233-0.349l-1.053-1.579c-0.18-0.26-0.34-0.539-0.536-0.786
			l-0.626-0.706c-0.433-0.453-0.796-0.99-1.286-1.382l-1.42-1.248c-0.516-0.358-1.052-0.692-1.578-1.045
			c-0.516-0.377-1.129-0.572-1.69-0.873c-0.562-0.31-1.179-0.483-1.786-0.688l-0.917-0.302l-0.945-0.209l-0.95-0.212
			c-0.319-0.061-0.646-0.081-0.969-0.124c-0.648-0.077-1.299-0.167-1.957-0.156c-0.657-0.013-1.318-0.048-1.978,0.016
			c-0.66,0.04-1.326,0.055-1.982,0.163c-0.662,0.075-1.323,0.168-1.975,0.318c-0.661,0.113-1.304,0.294-1.951,0.473
			c-0.653,0.163-1.278,0.409-1.912,0.638l-0.927,0.407l-0.888,0.494l0.808-0.631l0.875-0.54c0.604-0.319,1.209-0.659,1.847-0.915
			c0.632-0.272,1.274-0.528,1.935-0.727c0.652-0.233,1.32-0.41,1.995-0.569c0.67-0.188,1.356-0.298,2.045-0.406
			c0.687-0.134,1.384-0.168,2.083-0.222c0.698-0.078,1.401-0.054,2.106-0.039c0.353,0.011,0.708,0.001,1.06,0.032l1.057,0.127
			l1.061,0.13l1.041,0.253c0.694,0.175,1.4,0.323,2.062,0.617c0.66,0.284,1.373,0.468,1.994,0.843
			c0.632,0.351,1.276,0.69,1.901,1.062l1.748,1.307c0.306,0.206,0.563,0.461,0.813,0.724l0.767,0.776l0.765,0.78
			c0.24,0.271,0.441,0.571,0.663,0.856l1.3,1.742l-0.538-0.522l1.577,0.783c0.523,0.269,1.066,0.45,1.596,0.681
			c0.529,0.243,1.074,0.358,1.606,0.546c0.535,0.164,1.066,0.261,1.594,0.381c0.521,0.052,1.048,0.152,1.538,0.121
			c0.252,0.01,0.498,0.003,0.726-0.042c0.234-0.03,0.473-0.047,0.68-0.123c0.218-0.055,0.434-0.109,0.62-0.207
			c0.204-0.071,0.38-0.178,0.553-0.287c0.34-0.222,0.649-0.484,0.881-0.806c0.063-0.076,0.109-0.163,0.167-0.241
			c0.052-0.096,0.056-0.084,0.139-0.251c0.083-0.22,0.859-1.15,0.971-1.188c0.504-0.472,0.969-0.886,1.424-1.289
			c0.91-0.821,1.812-1.605,2.672-2.43c0.445-0.401,0.844-0.832,1.263-1.248c0.425-0.414,0.824-0.843,1.202-1.285
			c0.374-0.442,0.802-0.857,1.13-1.322l1.047-1.363l0.108-0.141l0.068-0.074c0.71-0.77,1.189-1.897,1.46-3.16
			c0.266-1.265,0.404-2.643,0.35-4.059c-0.064-2.827-0.585-5.745-1.332-8.565c-0.386-1.445-0.8-2.668-1.41-4.137l-1.691-4.258
			c-1.118-2.842-2.276-5.669-3.363-8.524l-3.291-8.553l-3.204-8.587l-3.113-8.624C325.207,225.771,324.212,222.88,323.25,219.975z"
			/>
	</g>
	<g>
		<path d="M345.627,298.225c0,0,0.398,0.292,1.042,0.869c0.639,0.579,1.534,1.433,2.501,2.553c0.992,1.102,2.039,2.479,3.083,4.012
			c0.483,0.79,1.056,1.566,1.506,2.432c0.476,0.851,0.957,1.716,1.383,2.612c0.438,0.89,0.822,1.804,1.183,2.711
			c0.399,0.892,0.66,1.821,0.951,2.703c0.313,0.875,0.501,1.758,0.694,2.587c0.096,0.414,0.188,0.817,0.278,1.206
			c0.06,0.397,0.116,0.78,0.17,1.148c0.108,0.734,0.205,1.405,0.255,2.005c0.037,0.602,0.049,1.128,0.063,1.559
			c0.021,0.862,0.015,1.353,0.015,1.353s-0.16-0.472-0.407-1.291c-0.121-0.411-0.272-0.906-0.422-1.476
			c-0.185-0.561-0.393-1.193-0.62-1.883c-0.207-0.691-0.473-1.427-0.764-2.2c-0.282-0.775-0.573-1.592-0.922-2.42
			c-0.329-0.835-0.686-1.688-1.072-2.547c-0.368-0.865-0.762-1.735-1.201-2.586c-0.792-1.74-1.736-3.407-2.585-4.994
			c-0.45-0.781-0.885-1.535-1.298-2.251c-0.429-0.709-0.834-1.38-1.208-2C346.731,299.858,345.627,298.225,345.627,298.225z"/>
	</g>
	<g>
		<path d="M262,327.975c1.001,0.03,1.998,0.021,2.995-0.014c0.995-0.009,1.99-0.067,2.982-0.116
			c0.992-0.075,1.983-0.103,2.972-0.204c0.989-0.082,1.977-0.17,2.961-0.288c0.985-0.104,1.97-0.198,2.949-0.347
			c0.979-0.146,1.962-0.247,2.935-0.432l2.925-0.474l2.904-0.573c0.971-0.175,1.924-0.439,2.889-0.64
			c0.961-0.219,1.926-0.415,2.874-0.687l2.854-0.762c0.948-0.265,1.881-0.581,2.827-0.852c0.94-0.287,1.892-0.542,2.814-0.885
			l2.787-0.97c0.937-0.303,1.838-0.702,2.754-1.06l2.751-1.064l0.979-0.379l0.69,0.744c0.252,0.271,0.591,0.603,0.908,0.894
			c0.327,0.296,0.659,0.589,1.005,0.866c0.687,0.559,1.404,1.077,2.148,1.541c1.491,0.917,3.069,1.665,4.707,2.023
			c0.409,0.082,0.819,0.15,1.231,0.185c0.409,0.027,0.822,0.056,1.229,0.021c0.41-0.007,0.813-0.079,1.215-0.145
			c0.399-0.09,0.797-0.187,1.186-0.325c0.394-0.12,0.77-0.304,1.148-0.479c0.369-0.2,0.743-0.395,1.091-0.646
			c0.364-0.222,0.692-0.507,1.032-0.774c0.338-0.272,0.643-0.592,0.968-0.886l0.695-0.628l0.672,0.454
			c1.308,0.884,2.631,1.791,3.967,2.658c1.337,0.869,2.69,1.712,4.044,2.557c1.359,0.835,2.743,1.624,4.143,2.389
			c0.703,0.377,1.419,0.722,2.143,1.058c0.36,0.172,0.734,0.304,1.104,0.458c0.372,0.147,0.76,0.234,1.146,0.356
			c-0.395-0.058-0.804-0.083-1.198-0.169c-0.392-0.094-0.795-0.167-1.184-0.279c-0.783-0.214-1.548-0.483-2.309-0.763
			c-0.754-0.291-1.516-0.575-2.251-0.909c-0.744-0.318-1.476-0.66-2.21-1c-1.464-0.685-2.899-1.424-4.323-2.185
			c-1.424-0.767-2.838-1.53-4.232-2.372l1.366-0.173c-0.35,0.362-0.676,0.746-1.05,1.092c-0.379,0.342-0.746,0.696-1.169,0.997
			c-0.4,0.326-0.845,0.601-1.29,0.875c-0.457,0.253-0.922,0.511-1.417,0.701c-0.487,0.213-1,0.362-1.518,0.495
			c-0.521,0.11-1.048,0.219-1.581,0.252c-0.531,0.062-1.064,0.052-1.594,0.034c-0.531-0.024-1.054-0.09-1.572-0.175
			c-2.066-0.378-3.989-1.181-5.706-2.232c-0.862-0.523-1.683-1.102-2.466-1.723c-0.395-0.308-0.773-0.634-1.149-0.966
			c-0.381-0.342-0.724-0.663-1.118-1.077l1.669,0.365l-2.816,1.128c-0.946,0.356-1.877,0.754-2.844,1.055l-2.878,0.961
			c-0.953,0.339-1.934,0.59-2.903,0.873c-0.973,0.275-1.942,0.563-2.926,0.795l-2.956,0.671c-0.981,0.24-1.979,0.406-2.971,0.593
			c-0.994,0.177-1.981,0.387-2.986,0.501l-3,0.4l-3.01,0.297c-1.002,0.104-2.014,0.119-3.018,0.182
			c-1.005,0.064-2.013,0.074-3.019,0.093c-2.012,0.029-4.024-0.042-6.028-0.166C265.967,328.572,263.967,328.36,262,327.975z"/>
	</g>
	<g>
		<path d="M275,336.975c0,0,4.022-0.021,10.034,0.056c3.004,0.035,6.509,0.077,10.264,0.122c1.876,0.019,3.813,0.038,5.783,0.058
			c1.969,0.025,3.968,0.031,5.967,0.024c1.999,0.012,3.996,0.006,5.963-0.018c1.965-0.036,3.898-0.072,5.77-0.106
			c1.869-0.066,3.677-0.116,5.387-0.212c1.71-0.1,3.327-0.199,4.813-0.34c0.745-0.065,1.457-0.139,2.131-0.225
			c0.677-0.075,1.319-0.148,1.916-0.25c1.201-0.174,2.237-0.384,3.089-0.574c0.843-0.217,1.514-0.379,1.949-0.553
			c0.446-0.151,0.685-0.232,0.685-0.232s-0.223,0.115-0.642,0.332c-0.413,0.235-1.047,0.517-1.876,0.834
			c-0.832,0.298-1.854,0.651-3.051,0.942c-1.193,0.316-2.555,0.614-4.049,0.864c-2.985,0.529-6.501,0.925-10.27,1.172
			c-1.886,0.115-3.834,0.233-5.814,0.278c-1.98,0.046-3.992,0.079-6.003,0.085c-2.012-0.016-4.021-0.045-5.999-0.094
			c-1.979-0.038-3.923-0.144-5.804-0.23c-3.763-0.189-7.269-0.451-10.269-0.736C278.974,337.621,275,336.975,275,336.975z"/>
	</g>
	<g>
		<path d="M280.75,345.475c0,0,3.982,1.334,9.961,3.066c1.498,0.41,3.122,0.854,4.839,1.324c1.717,0.462,3.544,0.872,5.422,1.319
			c0.938,0.226,1.903,0.404,2.873,0.614c0.974,0.183,1.959,0.367,2.952,0.554c1.988,0.341,4.013,0.661,6.044,0.842
			c2.025,0.252,4.057,0.356,6.051,0.395c0.996-0.001,1.982-0.028,2.957-0.04c0.965-0.083,1.936-0.088,2.865-0.229
			c0.933-0.122,1.854-0.233,2.735-0.426c0.445-0.085,0.885-0.169,1.319-0.252c0.424-0.118,0.843-0.235,1.256-0.352
			c0.843-0.199,1.609-0.521,2.369-0.803c0.779-0.243,1.454-0.634,2.139-0.951c0.701-0.295,1.27-0.738,1.868-1.085
			c0.61-0.333,1.113-0.751,1.599-1.136c1.014-0.725,1.73-1.545,2.396-2.161c0.62-0.655,1.046-1.23,1.371-1.6
			c0.316-0.378,0.484-0.58,0.484-0.58s-0.12,0.232-0.347,0.667c-0.244,0.424-0.521,1.111-1.038,1.88
			c-0.554,0.738-1.139,1.735-2.09,2.64c-0.448,0.479-0.92,1.003-1.507,1.451c-0.575,0.46-1.155,0.998-1.858,1.405
			c-0.689,0.428-1.385,0.937-2.186,1.298c-0.784,0.397-1.604,0.8-2.488,1.098c-0.438,0.163-0.883,0.328-1.332,0.495
			c-0.46,0.13-0.926,0.261-1.396,0.394c-0.938,0.303-1.925,0.441-2.921,0.633c-0.997,0.202-2.021,0.263-3.055,0.401
			c-1.033,0.078-2.084,0.143-3.14,0.149c-2.109-0.005-4.251-0.076-6.368-0.31c-2.121-0.226-4.215-0.592-6.266-0.98
			c-2.048-0.4-4.031-0.928-5.938-1.458c-1.908-0.528-3.725-1.129-5.428-1.74c-1.712-0.588-3.297-1.233-4.753-1.839
			C284.315,347.724,280.75,345.475,280.75,345.475z"/>
	</g>
	<g>
		<path d="M386.75,222.197l3.666,0.211c1.223,0.058,2.443,0.177,3.667,0.149c2.446-0.005,4.888,0.069,7.326-0.123
			c1.219-0.079,2.44-0.102,3.654-0.226l3.639-0.398c1.216-0.1,2.414-0.335,3.616-0.533c1.198-0.225,2.412-0.356,3.595-0.656
			l3.558-0.823c1.184-0.283,2.337-0.676,3.507-1.008l1.745-0.526l1.711-0.627c1.133-0.44,2.302-0.785,3.398-1.31l3.328-1.473
			l3.229-1.673c2.104-1.198,4.189-2.434,6.146-3.856c1.012-0.664,1.951-1.425,2.893-2.181l1.412-1.132l1.339-1.217l1.338-1.216
			l1.254-1.301l1.253-1.299l1.161-1.38l1.154-1.383l1.062-1.454c0.735-0.95,1.372-1.964,2.007-2.979
			c1.287-2.021,2.322-4.178,3.257-6.366c0.806-2.23,1.574-4.493,1.889-6.828c0.249-1.157,0.244-2.33,0.35-3.494
			c-0.058-1.159-0.01-2.333-0.242-3.462c-0.322-2.272-1.048-4.492-2.331-6.334c-1.248-1.861-2.954-3.362-4.929-4.436l-0.103-0.055
			l-0.121-0.094c-1.412-1.096-2.869-2.154-4.456-3.048c-1.557-0.933-3.196-1.748-4.849-2.536l-2.517-1.118l-2.56-1.034
			c-1.722-0.659-3.46-1.28-5.211-1.871c-7.021-2.33-14.238-4.129-21.502-5.705c-7.27-1.562-14.599-2.883-21.951-4.094
			c-7.354-1.204-14.736-2.251-22.141-3.287l-0.055-0.008l-0.073-0.015c-6.298-1.34-12.637-2.535-18.999-3.593
			c-6.365-1.036-12.738-2.036-19.137-2.862c-3.194-0.451-6.402-0.793-9.603-1.195l-9.623-1.019
			c-6.423-0.608-12.853-1.142-19.291-1.536c-6.438-0.405-12.883-0.695-19.33-0.868c-6.446-0.199-12.896-0.257-19.345-0.218
			c-3.224,0.057-6.448,0.063-9.671,0.162l-9.665,0.348l-9.654,0.559c-3.216,0.221-6.426,0.514-9.639,0.767
			c-3.216,0.231-6.411,0.656-9.618,0.974c-3.209,0.302-6.401,0.74-9.596,1.163l-4.792,0.63c-1.595,0.225-3.183,0.501-4.774,0.75
			c-3.176,0.538-6.375,0.954-9.531,1.603c-3.163,0.613-6.334,1.186-9.489,1.833l-9.431,2.107
			c-6.249,1.557-12.504,3.111-18.667,4.987l-4.638,1.354c-1.539,0.472-3.059,1.006-4.589,1.507l-4.584,1.524l-2.293,0.762
			c-0.76,0.265-1.509,0.562-2.264,0.841l-9.045,3.403l-8.899,3.767l-2.224,0.945l-2.182,1.036l-4.365,2.073l-4.364,2.079
			l-4.268,2.267l-4.269,2.267l-2.133,1.138l-2.079,1.232l-8.319,4.929l0.073-0.05c-1.152,0.87-2.297,1.746-3.416,2.651
			c-0.57,0.441-1.105,0.918-1.659,1.376c-0.557,0.455-1.084,0.939-1.617,1.418c-0.54,0.473-1.061,0.961-1.569,1.462
			c-0.517,0.494-1.032,0.989-1.508,1.516c-0.485,0.52-0.989,1.027-1.427,1.581c-0.446,0.548-0.931,1.072-1.322,1.655
			c-0.402,0.576-0.853,1.126-1.186,1.739c-0.354,0.601-0.745,1.188-1.007,1.828l-0.441,0.941c-0.141,0.316-0.22,0.649-0.334,0.974
			c-0.101,0.327-0.226,0.65-0.309,0.981l-0.173,1.005c-0.17,0.668-0.108,1.347-0.133,2.024c-0.031,0.341,0.038,0.673,0.094,1.007
			l0.159,1.004c0.171,0.655,0.432,1.291,0.639,1.942l0.982,1.822l-0.115-0.134c3.193,2.902,6.538,5.687,9.945,8.363
			c3.414,2.675,6.921,5.234,10.543,7.617c3.626,2.375,7.364,4.591,11.281,6.453c0.985,0.45,1.969,0.908,2.982,1.294
			c1.002,0.414,2.029,0.764,3.062,1.094c0.521,0.148,1.039,0.313,1.563,0.448l1.587,0.363l1.608,0.257l1.625,0.131l-1.63-0.079
			l-1.621-0.206l-1.604-0.313c-0.532-0.118-1.057-0.268-1.586-0.4c-1.048-0.298-2.093-0.618-3.114-1.001
			c-1.032-0.357-2.036-0.786-3.042-1.207c-4.006-1.736-7.833-3.863-11.531-6.175c-3.701-2.311-7.288-4.8-10.785-7.408
			c-3.496-2.615-6.909-5.318-10.223-8.19l-0.077-0.066l-0.039-0.068l-1.136-1.993c-0.259-0.725-0.566-1.438-0.776-2.181
			l-0.213-1.146c-0.072-0.383-0.154-0.765-0.134-1.155c0.003-0.775-0.07-1.563,0.095-2.322l0.174-1.149
			c0.085-0.375,0.211-0.738,0.316-1.107c0.118-0.365,0.204-0.745,0.35-1.097l0.458-1.047c0.279-0.715,0.679-1.355,1.048-2.015
			c0.351-0.675,0.809-1.268,1.226-1.894c0.408-0.635,0.898-1.195,1.357-1.785c0.452-0.598,0.962-1.137,1.456-1.692
			c0.487-0.564,1.008-1.09,1.531-1.614c0.514-0.535,1.044-1.05,1.593-1.543c0.542-0.501,1.08-1.008,1.642-1.482
			c0.56-0.477,1.105-0.976,1.679-1.434c1.13-0.942,2.282-1.85,3.439-2.75l0.036-0.028l0.037-0.022l8.317-5.093l2.08-1.273
			l2.134-1.179l4.273-2.35l4.275-2.35l4.372-2.162l4.376-2.157l2.188-1.078l2.23-0.986l8.93-3.934l9.082-3.568
			c0.759-0.293,1.511-0.604,2.274-0.883l2.303-0.804l4.607-1.607c1.539-0.528,3.066-1.089,4.614-1.589l4.663-1.437
			c6.192-2.004,12.502-3.604,18.801-5.225l9.507-2.198c3.181-0.677,6.377-1.279,9.565-1.922c3.182-0.679,6.405-1.124,9.607-1.69
			c1.604-0.263,3.205-0.553,4.813-0.792l4.831-0.672c3.22-0.45,6.439-0.918,9.673-1.244c3.234-0.329,6.459-0.765,9.701-1.006
			c3.239-0.264,6.477-0.567,9.719-0.798l9.733-0.587l9.742-0.375c3.248-0.107,6.497-0.122,9.746-0.187
			c12.997-0.135,25.996,0.237,38.962,1.089c6.483,0.413,12.957,0.966,19.423,1.595l9.687,1.05c3.222,0.412,6.451,0.765,9.667,1.227
			c6.44,0.849,12.859,1.861,19.263,2.966c6.402,1.114,12.781,2.366,19.137,3.767l-0.128-0.023
			c14.786,2.187,29.635,4.433,44.274,7.828c7.317,1.699,14.601,3.625,21.736,6.107c1.781,0.629,3.553,1.292,5.313,1.994l2.621,1.104
			l2.59,1.196c1.708,0.844,3.406,1.719,5.042,2.731c1.657,0.968,3.22,2.127,4.738,3.347l-0.223-0.149
			c2.319,1.291,4.35,3.132,5.792,5.362c0.327,0.575,0.715,1.123,0.983,1.724l0.758,1.824c0.362,1.254,0.749,2.514,0.864,3.806
			c0.235,1.283,0.174,2.573,0.21,3.857c-0.125,1.271-0.15,2.559-0.432,3.8c-0.382,2.522-1.23,4.917-2.123,7.268
			c-1.018,2.299-2.144,4.55-3.518,6.643c-0.681,1.05-1.355,2.104-2.144,3.074l-1.14,1.485l-1.231,1.407l-1.237,1.4l-1.327,1.314
			l-1.326,1.312l-1.408,1.221l-1.408,1.22l-1.479,1.13c-0.985,0.754-1.968,1.511-3.021,2.167c-2.04,1.41-4.202,2.624-6.379,3.794
			l-3.331,1.628l-3.422,1.418c-1.128,0.505-2.324,0.83-3.483,1.249l-1.75,0.595l-1.782,0.492c-1.192,0.309-2.369,0.678-3.573,0.936
			l-3.616,0.747c-1.199,0.274-2.43,0.379-3.643,0.576c-1.218,0.171-2.43,0.379-3.658,0.451l-3.672,0.304
			c-1.224,0.085-2.454,0.07-3.68,0.11c-2.452,0.114-4.907-0.038-7.355-0.111c-1.228-0.012-2.442-0.169-3.663-0.266L386.75,222.197z"
			/>
	</g>
	<g>
		<path d="M120.916,213.475c1.984-1.918,4.197-3.61,6.5-5.159c2.339-1.491,4.764-2.859,7.269-4.056
			c4.99-2.446,10.207-4.396,15.484-6.115c5.278-1.729,10.655-3.127,16.057-4.389c5.405-1.253,10.844-2.356,16.31-3.277
			c5.465-0.936,10.947-1.754,16.44-2.485c5.493-0.735,11.002-1.318,16.514-1.858c5.513-0.533,11.031-1.005,16.554-1.395
			c5.524-0.366,11.052-0.684,16.581-0.934c5.53-0.25,11.061-0.451,16.593-0.604c5.533-0.128,11.066-0.193,16.6-0.223
			c11.067-0.056,22.134,0.08,33.193,0.482c5.529,0.195,11.059,0.428,16.584,0.733c5.524,0.324,11.047,0.703,16.564,1.157
			c5.519,0.446,11.031,0.985,16.532,1.686c2.751,0.344,5.5,0.723,8.243,1.176c2.745,0.453,5.484,0.957,8.211,1.718l-0.071-0.016
			l2.127,0.47c0.71,0.151,1.41,0.365,2.114,0.544c0.706,0.17,1.396,0.425,2.094,0.639c0.699,0.203,1.375,0.509,2.062,0.759
			c0.678,0.285,1.349,0.595,2.007,0.931c0.65,0.358,1.299,0.719,1.903,1.17c0.314,0.2,0.601,0.45,0.885,0.702l0.428,0.373
			l0.386,0.427l0.381,0.428l0.324,0.484c0.232,0.31,0.392,0.668,0.55,1.026c0.183,0.345,0.231,0.748,0.349,1.118
			c0.035,0.387,0.117,0.776,0.085,1.163c-0.001,0.779-0.197,1.527-0.447,2.234c-0.272,0.701-0.619,1.362-1.029,1.973
			c-0.404,0.616-0.86,1.192-1.357,1.724c-0.983,1.074-2.083,2.024-3.254,2.864c-0.581,0.427-1.191,0.812-1.811,1.178
			c-0.625,0.353-1.267,0.691-1.953,0.902c0.671-0.254,1.283-0.63,1.881-1.02c0.589-0.403,1.168-0.82,1.713-1.279
			c1.102-0.903,2.12-1.906,3.003-3.006c0.444-0.547,0.848-1.124,1.205-1.721c0.36-0.596,0.65-1.227,0.866-1.872
			c0.194-0.649,0.334-1.315,0.301-1.974c0.015-0.33-0.078-0.65-0.117-0.972c-0.12-0.304-0.163-0.631-0.337-0.914
			c-0.147-0.291-0.289-0.583-0.505-0.838l-0.291-0.397l-0.353-0.356l-0.352-0.355l-0.399-0.313
			c-0.263-0.212-0.525-0.423-0.827-0.592c-0.564-0.383-1.185-0.689-1.805-0.993c-0.631-0.285-1.277-0.547-1.932-0.785
			c-0.671-0.207-1.316-0.467-2.003-0.63c-0.683-0.173-1.35-0.385-2.045-0.518c-0.692-0.141-1.373-0.314-2.072-0.428l-2.089-0.358
			l-0.072-0.016c-5.288-1.126-10.79-1.718-16.258-2.222c-5.479-0.489-10.976-0.858-16.475-1.182
			c-5.5-0.314-11.006-0.554-16.514-0.739c-5.508-0.203-11.017-0.365-16.527-0.471c-5.511-0.116-11.022-0.152-16.534-0.187
			c-5.511-0.038-11.022-0.04-16.533,0.018c-11.021,0.125-22.041,0.377-33.051,0.813c-5.505,0.221-11.006,0.51-16.504,0.847
			c-5.499,0.309-10.993,0.693-16.481,1.142c-10.974,0.912-21.927,2.061-32.817,3.634c-5.443,0.8-10.87,1.698-16.267,2.751
			c-5.396,1.055-10.751,2.299-16.058,3.725c-5.297,1.45-10.543,3.13-15.587,5.31c-2.539,1.056-4.978,2.32-7.388,3.645
			C125.321,210.154,123.028,211.681,120.916,213.475z"/>
	</g>
	<g>
		<path d="M133.584,137.475c0.41-0.695,0.851-1.372,1.235-2.081l1.075-2.161c0.65-1.472,1.33-2.933,1.907-4.437
			c0.592-1.498,1.187-2.992,1.726-4.51c0.559-1.509,1.111-3.021,1.609-4.552c0.516-1.524,1.035-3.047,1.495-4.59
			c0.467-1.541,0.972-3.068,1.39-4.622c0.428-1.551,0.891-3.091,1.29-4.649l1.187-4.674l1.059-4.701
			c0.372-1.563,0.625-3.149,0.942-4.722c0.327-1.572,0.571-3.156,0.82-4.739c0.254-1.582,0.53-3.16,0.692-4.751
			c0.168-1.589,0.427-3.172,0.521-4.765c0.102-1.591,0.246-3.182,0.313-4.771l0.05-4.762l-0.296-4.723l-0.005-0.085v-0.012
			c-0.019-1.415,0.006-2.828,0.155-4.219c0.061-0.698,0.143-1.393,0.253-2.081c0.089-0.693,0.216-1.377,0.347-2.061
			c0.521-2.733,1.258-5.411,2.154-8.029c0.448-1.309,0.932-2.605,1.464-3.882c0.525-1.279,1.083-2.546,1.694-3.787
			c0.593-1.249,1.24-2.474,1.915-3.683c0.671-1.212,1.392-2.396,2.137-3.566c0.75-1.168,1.547-2.306,2.367-3.431l1.278-1.653
			l1.347-1.603c0.925-1.048,1.882-2.07,2.893-3.047c1.012-0.974,2.066-1.91,3.175-2.789c2.215-1.756,4.64-3.298,7.273-4.472
			c0.649-0.311,1.34-0.537,2.009-0.807c0.678-0.252,1.384-0.432,2.077-0.649c0.702-0.186,1.421-0.318,2.132-0.476
			c0.721-0.111,1.448-0.194,2.173-0.289l0.147-0.006l4.531-0.249c1.511-0.14,3.023-0.399,4.534-0.592
			c0.756-0.085,1.51-0.233,2.265-0.391l2.263-0.452c1.51-0.27,3.018-0.642,4.525-1.001c3.016-0.685,6.032-1.516,9.054-2.292
			c3.028-0.804,6.056-1.607,9.115-2.369c3.037-0.804,6.139-1.453,9.215-2.162c3.117-0.565,6.202-1.279,9.358-1.669
			c1.571-0.22,3.14-0.471,4.715-0.666l4.753-0.409l2.376-0.204l2.386-0.063l4.773-0.112c1.591-0.041,3.181,0.108,4.771,0.154
			c1.59,0.084,3.184,0.109,4.768,0.244l4.742,0.549l2.371,0.276l1.184,0.144l1.172,0.224l4.685,0.895
			c1.558,0.313,3.135,0.546,4.656,1.008l4.6,1.238l2.298,0.626l1.185,0.327l1.113,0.371c1.516,0.53,2.895,0.896,4.374,1.291
			c1.481,0.377,2.987,0.717,4.502,1.045c3.038,0.652,6.149,1.241,9.272,2.131c3.109,0.882,6.28,2.134,9.037,4.16
			c2.769,2.001,4.979,4.721,6.538,7.663l0.042,0.078l0.021,0.053l10.757,25.897l5.324,12.97l5.237,13.007l5.183,13.028
			c1.7,4.354,3.489,8.669,5.115,13.056l4.967,13.115l4.891,13.138l-5.503-12.897l-5.427-12.919
			c-1.777-4.317-3.722-8.571-5.573-12.859l-5.602-12.847l-5.566-12.86l-5.628-12.835l-11.228-25.678l0.063,0.131
			c-1.435-2.552-3.289-4.79-5.624-6.438c-2.322-1.67-5.079-2.75-7.987-3.539c-2.91-0.797-5.964-1.345-9.054-1.971
			c-1.549-0.317-3.101-0.648-4.658-1.027c-1.551-0.39-3.2-0.824-4.646-1.314l-1.118-0.359L295.615,9l-2.24-0.583l-4.476-1.18
			c-1.48-0.445-3.01-0.663-4.521-0.96l-4.543-0.852l-1.136-0.213l-1.146-0.135l-2.295-0.257l-4.59-0.517
			c-1.533-0.125-3.074-0.141-4.611-0.217c-1.537-0.038-3.074-0.18-4.613-0.133l-4.616,0.127l-2.308,0.068l-2.302,0.207l-4.604,0.412
			c-1.53,0.189-3.057,0.425-4.585,0.634c-3.064,0.364-6.092,1.055-9.136,1.594c-3.027,0.688-6.061,1.309-9.079,2.095
			c-3.021,0.741-6.047,1.532-9.074,2.323c-3.045,0.771-6.069,1.592-9.163,2.284c-1.539,0.361-3.073,0.733-4.647,1.01l-2.347,0.442
			c-0.78,0.154-1.563,0.298-2.365,0.382c-1.596,0.187-3.178,0.438-4.784,0.569l-4.85,0.21l0.147-0.006l-1.852,0.226
			c-0.609,0.133-1.225,0.235-1.832,0.388c-0.599,0.185-1.209,0.328-1.801,0.542c-0.585,0.232-1.188,0.416-1.762,0.685
			c-2.323,1.004-4.517,2.358-6.557,3.938c-1.021,0.79-2,1.641-2.947,2.531c-0.945,0.894-1.848,1.837-2.724,2.807l-1.28,1.489
			l-1.23,1.536c-0.793,1.048-1.568,2.111-2.3,3.206c-0.728,1.098-1.435,2.212-2.096,3.356c-0.665,1.14-1.304,2.298-1.893,3.481
			c-0.606,1.175-1.162,2.376-1.686,3.59c-0.531,1.211-1.017,2.442-1.467,3.684c-0.901,2.484-1.649,5.023-2.189,7.595
			c-0.135,0.643-0.268,1.287-0.362,1.934c-0.116,0.646-0.204,1.293-0.272,1.942c-0.164,1.296-0.223,2.591-0.24,3.881l-0.005-0.097
			l0.184,4.941l-0.177,4.911c-0.11,1.63-0.299,3.251-0.445,4.875c-0.139,1.625-0.441,3.225-0.654,4.838
			c-0.207,1.615-0.527,3.207-0.825,4.803c-0.286,1.599-0.607,3.189-0.987,4.766c-0.377,1.577-0.69,3.169-1.12,4.731l-1.235,4.699
			l-1.36,4.661c-0.458,1.552-0.977,3.085-1.462,4.627c-0.475,1.546-1.037,3.064-1.56,4.593c-0.516,1.532-1.092,3.043-1.664,4.556
			c-0.554,1.518-1.162,3.017-1.777,4.511c-0.586,1.506-1.271,2.973-1.931,4.448c-0.65,1.479-1.402,2.914-2.124,4.358l-1.183,2.119
			C134.499,136.146,134.026,136.801,133.584,137.475z"/>
	</g>
	<g>
		<path d="M297.25,28.725c0,0,0.138,3.55,1.427,8.602c0.343,1.256,0.728,2.61,1.22,4.011c0.486,1.403,1.071,2.854,1.741,4.32
			c0.645,1.48,1.478,2.926,2.304,4.397c0.885,1.438,1.813,2.884,2.883,4.225c1.017,1.38,2.156,2.667,3.322,3.888
			c0.575,0.619,1.206,1.173,1.787,1.766c0.598,0.575,1.233,1.093,1.835,1.632c1.251,1.019,2.476,1.995,3.702,2.835
			c0.596,0.446,1.211,0.827,1.803,1.203c0.594,0.371,1.145,0.774,1.719,1.083c1.136,0.637,2.156,1.275,3.112,1.74
			c0.949,0.481,1.761,0.946,2.464,1.25c1.389,0.667,2.182,1.048,2.182,1.048s-0.847-0.247-2.328-0.678
			c-0.748-0.206-1.623-0.542-2.634-0.923c-1.022-0.353-2.125-0.871-3.339-1.425c-0.614-0.261-1.211-0.618-1.854-0.942
			c-0.64-0.332-1.293-0.691-1.938-1.105c-1.32-0.781-2.661-1.694-3.993-2.715c-1.317-1.04-2.656-2.153-3.896-3.416
			c-1.236-1.262-2.451-2.592-3.533-4.028c-1.103-1.422-2.057-2.95-2.961-4.468c-0.86-1.544-1.627-3.109-2.249-4.67
			c-0.653-1.548-1.143-3.099-1.55-4.578c-0.426-1.475-0.69-2.904-0.918-4.218c-0.419-2.639-0.507-4.863-0.473-6.411
			C297.113,29.6,297.25,28.725,297.25,28.725z"/>
	</g>
	<g>
		<path d="M293.75,89.975c0,0,0.39,0.217,1.014,0.696c0.613,0.485,1.449,1.24,2.332,2.263c0.416,0.525,0.911,1.077,1.323,1.73
			c0.216,0.321,0.438,0.652,0.666,0.989c0.212,0.347,0.407,0.713,0.616,1.081c0.429,0.73,0.779,1.531,1.151,2.337
			c0.322,0.825,0.648,1.667,0.939,2.519c0.229,0.87,0.505,1.729,0.686,2.594c0.18,0.865,0.338,1.722,0.45,2.553
			c0.102,0.833,0.163,1.643,0.227,2.407c0.041,0.766,0.021,1.493,0.018,2.161c0.029,1.333-0.166,2.443-0.245,3.213
			c-0.101,0.771-0.177,1.207-0.177,1.207s-0.093-0.44-0.221-1.203c-0.062-0.381-0.142-0.843-0.209-1.371
			c-0.06-0.528-0.179-1.119-0.293-1.761c-0.11-0.64-0.229-1.333-0.355-2.067c-0.16-0.726-0.335-1.487-0.479-2.278
			c-0.156-0.79-0.422-1.58-0.593-2.404c-0.191-0.819-0.48-1.625-0.714-2.444c-0.253-0.813-0.541-1.615-0.823-2.404
			c-0.346-0.761-0.574-1.565-0.936-2.277c-0.33-0.728-0.642-1.437-0.985-2.087c-0.318-0.665-0.68-1.258-0.979-1.833
			c-0.342-0.544-0.626-1.072-0.922-1.508c-0.283-0.447-0.548-0.825-0.764-1.144C294.033,90.322,293.75,89.975,293.75,89.975z"/>
	</g>
	<g>
		<path d="M153.75,105.475c0,0,0.86-0.525,2.246-1.593c1.384-1.065,3.298-2.67,5.368-4.806c1.046-1.057,2.097-2.277,3.183-3.58
			c1.071-1.317,2.116-2.77,3.148-4.3c1.011-1.545,1.979-3.189,2.866-4.911c0.918-1.705,1.69-3.518,2.417-5.345
			c0.356-0.917,0.681-1.846,1.013-2.769c0.281-0.939,0.591-1.866,0.845-2.802c0.225-0.943,0.498-1.868,0.707-2.796
			c0.191-0.932,0.412-1.848,0.574-2.76c0.151-0.915,0.299-1.814,0.444-2.694c0.109-0.887,0.217-1.755,0.321-2.6
			c0.117-0.845,0.134-1.675,0.213-2.475c0.073-0.8,0.139-1.575,0.152-2.321c0.055-1.491,0.124-2.862,0.102-4.079
			c-0.003-1.217,0.023-2.283-0.028-3.157c-0.044-1.757-0.07-2.761-0.07-2.761s0.169,0.991,0.466,2.726
			c0.159,0.869,0.276,1.932,0.396,3.155c0.153,1.222,0.228,2.608,0.283,4.124c0.078,1.515,0.042,3.163-0.025,4.903
			c-0.056,0.871-0.114,1.765-0.173,2.679c-0.112,0.91-0.226,1.84-0.343,2.786c-0.294,1.883-0.641,3.829-1.153,5.771
			c-0.251,0.971-0.561,1.936-0.842,2.913c-0.333,0.96-0.656,1.93-1.019,2.884c-0.775,1.889-1.601,3.761-2.574,5.522
			c-0.929,1.785-2.032,3.435-3.123,5.003c-2.234,3.108-4.687,5.725-6.992,7.714c-2.286,2.016-4.411,3.415-5.934,4.305
			C154.687,105.1,153.75,105.475,153.75,105.475z"/>
	</g>
	<g>
		<path d="M179.75,111.975c0.957-2.125,1.972-4.223,3.009-6.31c1.039-2.085,2.069-4.177,3.162-6.236
			c2.162-4.13,4.437-8.203,6.805-12.227c2.406-4,4.874-7.973,7.615-11.782c0.69-0.95,1.378-1.901,2.103-2.829
			c0.713-0.936,1.457-1.853,2.23-2.752c0.777-0.894,1.581-1.772,2.454-2.603c0.846-0.849,1.81-1.619,2.846-2.33l-0.441,0.715
			l0.153-2.54c0.063-0.842,0.09-1.699,0.11-2.563c0.044-1.723,0.116-3.442,0.138-5.169l0.154-10.366l0.172-10.376
			c0.083-3.46,0.121-6.919,0.24-10.382c0.265,3.455,0.418,6.912,0.607,10.369c0.099,1.729,0.158,3.458,0.227,5.188
			c0.066,1.729,0.141,3.459,0.177,5.19c0.098,3.46,0.175,6.923,0.191,10.389c0.02,1.732-0.014,3.471-0.018,5.207
			c0.005,0.865-0.017,1.737-0.076,2.621l-0.141,2.64l-0.022,0.419l-0.419,0.295c-0.874,0.617-1.736,1.303-2.527,2.111
			c-0.807,0.779-1.571,1.625-2.313,2.493c-0.75,0.86-1.481,1.746-2.185,2.656c-0.715,0.9-1.398,1.83-2.083,2.757
			c-2.698,3.746-5.281,7.6-7.752,11.527c-2.5,3.911-4.911,7.883-7.306,11.869l-3.58,5.991L179.75,111.975z"/>
	</g>
	<g>
		<path d="M220,84.225c0,0,1.089,2.212,2.248,5.708c1.162,3.49,2.442,8.262,2.859,13.237c0.098,1.242,0.11,2.5,0.077,3.742
			c-0.053,0.627-0.058,1.242-0.18,1.857c-0.05,0.307-0.099,0.611-0.147,0.914c-0.076,0.302-0.152,0.603-0.228,0.9
			c-0.345,1.175-0.815,2.347-1.699,3.224c-0.851,0.882-1.996,1.379-3.021,1.428c-0.508,0.055-0.983-0.03-1.431-0.051
			c-0.434-0.097-0.834-0.214-1.209-0.311c-0.731-0.247-1.332-0.537-1.817-0.774c-0.939-0.55-1.453-0.875-1.453-0.875
			s0.597,0.177,1.602,0.505c0.511,0.131,1.138,0.277,1.841,0.398c0.356,0.028,0.732,0.072,1.121,0.094
			c0.382-0.054,0.795-0.02,1.185-0.124c0.803-0.157,1.51-0.618,2.064-1.28c0.571-0.667,0.861-1.655,1.109-2.662
			c0.255-1.021,0.265-2.165,0.333-3.306c0.008-1.156-0.028-2.338-0.141-3.525c-0.074-1.188-0.213-2.379-0.374-3.549
			c-0.165-1.169-0.318-2.327-0.508-3.443c-0.192-1.117-0.378-2.197-0.554-3.222c-0.19-1.025-0.37-1.995-0.536-2.89
			C220.457,86.624,220,84.225,220,84.225z"/>
	</g>
	<g>
		<path d="M147.584,224.071c-2.123-0.841-4.3-1.527-6.496-2.113c-2.192-0.599-4.41-1.086-6.642-1.434
			c-1.115-0.176-2.234-0.316-3.354-0.423c-1.119-0.11-2.24-0.157-3.357-0.188l-1.673,0.019c-0.557,0.02-1.11,0.069-1.664,0.102
			c-1.103,0.104-2.201,0.239-3.274,0.466c-0.543,0.089-1.074,0.218-1.597,0.373c-0.527,0.141-1.055,0.276-1.557,0.481
			c-1.03,0.342-2.003,0.81-2.951,1.306l-1.37,0.829l-1.269,0.966c-0.792,0.704-1.584,1.41-2.233,2.252
			c-0.349,0.398-0.692,0.8-0.971,1.256c-0.288,0.447-0.615,0.865-0.874,1.331c-0.5,0.946-1.027,1.871-1.391,2.891
			c-0.447,0.975-0.717,2.033-1.035,3.066c-0.301,1.04-0.466,2.129-0.709,3.188l0.027-0.328l0.567,9.379l0.515,4.653
			c0.169,1.551,0.315,3.106,0.625,4.628l0.805,4.589c0.294,1.522,0.715,3.008,1.063,4.514l0.55,2.25l0.725,2.188
			c0.512,1.446,0.886,2.952,1.55,4.331l0.905,2.108c0.306,0.7,0.577,1.418,0.966,2.076c0.746,1.33,1.396,2.715,2.214,4.001
			c0.864,1.258,1.603,2.595,2.533,3.812l1.385,1.833l0.692,0.917l0.753,0.878c1.977,2.365,4.104,4.624,6.315,6.87
			c2.189,2.25,4.457,4.496,6.609,6.875c1.108,1.15,2.115,2.429,3.176,3.637c1.059,1.214,1.988,2.553,2.986,3.823l0.368,0.482
			l0.092,0.12l0.046,0.061l0.023,0.03c-0.09-0.142,0.149,0.226,0.13,0.2l0.141,0.261l0.565,1.043c0.194,0.33,0.372,0.711,0.54,1.117
			l0.513,1.186c0.367,0.804,0.605,1.551,0.889,2.317c0.278,0.762,0.553,1.527,0.778,2.296c0.484,1.534,0.949,3.07,1.355,4.614
			c0.441,1.539,0.814,3.088,1.199,4.635c0.756,3.097,1.443,6.202,2.042,9.325c1.205,6.241,2.203,12.516,2.901,18.826
			c0.366,3.152,0.639,6.315,0.827,9.482c0.211,3.165,0.24,6.342,0.209,9.505c-0.154-1.577-0.263-3.153-0.453-4.723
			c-0.215-1.567-0.353-3.138-0.596-4.699c-0.436-3.127-0.949-6.24-1.496-9.346c-0.546-3.106-1.185-6.194-1.821-9.28
			c-0.646-3.084-1.345-6.155-2.094-9.213c-0.767-3.053-1.529-6.104-2.39-9.121c-0.434-1.508-0.856-3.02-1.341-4.505
			c-0.453-1.5-0.959-2.973-1.479-4.438c-0.243-0.741-0.54-1.451-0.814-2.17c-0.28-0.71-0.544-1.465-0.854-2.093l-0.444-0.985
			l-0.219-0.492l-0.289-0.514l-0.588-1.03l-0.147-0.257c-0.029-0.049,0.194,0.3,0.089,0.139l-0.023-0.027l-0.045-0.057l-0.091-0.113
			l-0.362-0.452c-0.983-1.192-1.885-2.441-2.932-3.588c-1.052-1.144-2.027-2.335-3.14-3.439c-2.156-2.252-4.385-4.454-6.625-6.719
			c-1.125-1.115-2.234-2.271-3.336-3.442c-1.124-1.14-2.167-2.387-3.234-3.605l-0.796-0.917l-0.745-0.97l-1.489-1.941
			c-0.517-0.631-0.943-1.333-1.394-2.016l-1.333-2.062c-0.867-1.388-1.562-2.877-2.347-4.313c-0.41-0.711-0.696-1.477-1.018-2.228
			l-0.95-2.257c-0.693-1.486-1.083-3.068-1.612-4.605l-0.747-2.32l-0.562-2.361c-0.349-1.577-0.795-3.141-1.056-4.73l-0.732-4.772
			c-0.285-1.587-0.401-3.185-0.541-4.781l-0.423-4.786c-0.156-3.191-0.226-6.383-0.31-9.573l-0.005-0.204l0.033-0.125
			c0.303-1.156,0.529-2.323,0.901-3.462c0.392-1.135,0.735-2.281,1.275-3.37c0.45-1.119,1.083-2.162,1.694-3.21
			c0.316-0.519,0.706-0.995,1.057-1.492c0.341-0.506,0.75-0.961,1.172-1.406c0.799-0.926,1.754-1.708,2.707-2.464l1.51-1.032
			l1.604-0.865c1.097-0.51,2.214-0.974,3.37-1.295c0.568-0.196,1.153-0.317,1.735-0.442c0.58-0.14,1.164-0.25,1.753-0.318
			c1.17-0.193,2.352-0.247,3.523-0.287c0.587,0.002,1.173-0.012,1.757,0.004l1.748,0.092c1.16,0.105,2.315,0.229,3.459,0.416
			c1.144,0.183,2.281,0.396,3.402,0.67C139.159,220.446,143.501,222.015,147.584,224.071z"/>
	</g>
	<g>
		<path d="M135.25,430.225c0.57-0.531,1.097-1.105,1.53-1.744c0.444-0.633,0.83-1.305,1.161-2.001
			c0.673-1.39,1.176-2.854,1.589-4.34c0.827-2.974,1.32-6.035,1.639-9.108c0.321-3.074,0.466-6.167,0.494-9.257
			c0.013-1.546-0.006-3.091-0.062-4.631c-0.027-0.771-0.065-1.539-0.116-2.303c-0.054-0.754-0.114-1.547-0.222-2.214l-0.02-0.122
			l0.016-0.153c0.133-1.297,0.242-2.618,0.405-3.962c0.163-1.342,0.385-2.719,0.87-4.103c0.473-1.363,1.305-2.816,2.682-3.755
			c1.37-0.95,2.994-1.219,4.467-1.245c2.979,0.058,5.566,0.96,8.106,1.715c2.546,0.777,5.064,1.605,7.582,2.438
			c10.059,3.354,19.989,7.047,29.849,10.92c4.927,1.945,9.849,3.905,14.726,5.974c4.879,2.063,9.742,4.164,14.581,6.32
			c4.838,2.16,9.663,4.351,14.448,6.629c4.783,2.282,9.537,4.625,14.27,7.013l7.072,3.636l7.022,3.732l6.95,3.869l6.891,3.979
			c4.563,2.707,9.111,5.438,13.566,8.323c4.456,2.882,8.867,5.835,13.191,8.915c4.338,3.06,8.576,6.264,12.707,9.602
			c4.141,3.322,8.177,6.783,12.025,10.444l1.455,1.356l1.403,1.416l2.803,2.827c0.456,0.461,0.954,0.951,1.383,1.448
			c0.44,0.494,0.895,0.962,1.297,1.536c0.417,0.549,0.837,1.093,1.172,1.681l0.533,0.864l0.46,0.905
			c1.216,2.417,1.928,5.069,2.089,7.741c0.19,2.67-0.133,5.341-0.766,7.903c0.95-5.178,0.422-10.701-2.158-15.204l-0.479-0.839
			l-0.549-0.797c-0.347-0.546-0.763-1.027-1.169-1.514c-0.377-0.496-0.867-0.957-1.33-1.427c-0.46-0.481-0.927-0.894-1.424-1.348
			l-2.914-2.663l-1.456-1.331l-1.509-1.272c-4.008-3.409-8.1-6.717-12.321-9.855c-2.12-1.558-4.208-3.154-6.389-4.63
			c-2.17-1.488-4.288-3.046-6.5-4.474c-4.362-2.941-8.811-5.757-13.302-8.5c-2.266-1.34-4.491-2.742-6.77-4.063
			c-2.279-1.317-4.542-2.661-6.834-3.955l-6.9-3.843l-6.961-3.734l-7-3.665l-7.046-3.576c-9.43-4.703-18.971-9.187-28.569-13.544
			c-4.804-2.171-9.633-4.286-14.479-6.364l-7.278-3.094l-7.302-3.038c-4.881-1.995-9.772-3.965-14.692-5.86
			c-4.915-1.907-9.836-3.803-14.79-5.598c-2.477-0.89-4.958-1.777-7.446-2.606c-2.485-0.813-4.953-1.72-7.287-1.833
			c-1.15-0.016-2.243,0.152-3.082,0.693c-0.845,0.526-1.464,1.44-1.894,2.539c-0.859,2.221-1.043,4.89-1.431,7.518l-0.004-0.274
			c0.096,0.875,0.109,1.638,0.129,2.438c0.013,0.79,0.013,1.577,0.003,2.362c-0.021,1.57-0.079,3.137-0.168,4.701
			c-0.183,3.128-0.483,6.249-0.962,9.346c-0.476,3.095-1.126,6.174-2.119,9.153c-0.519,1.48-1.128,2.936-1.905,4.3
			c-0.383,0.684-0.82,1.34-1.311,1.95C136.419,429.194,135.852,429.734,135.25,430.225z"/>
	</g>
	<g>
		<path d="M331.5,439.225c0,0,0.185,0.196,0.531,0.564c0.342,0.374,0.863,0.893,1.486,1.591c1.267,1.386,3.052,3.39,5.048,5.91
			c1.014,1.249,2.072,2.633,3.166,4.116c1.066,1.501,2.244,3.053,3.343,4.737c1.12,1.671,2.264,3.408,3.345,5.227
			c1.124,1.791,2.167,3.672,3.21,5.553c1.056,1.873,1.98,3.824,2.926,5.719c0.923,1.908,1.724,3.844,2.528,5.694
			c0.736,1.888,1.394,3.732,2.012,5.479c0.561,1.773,1.042,3.463,1.479,5.019c0.386,1.576,0.666,3.04,0.927,4.326
			c0.305,1.273,0.359,2.439,0.48,3.372c0.202,1.877,0.269,2.943,0.269,2.943s-0.411-1.008-1.044-2.762
			c-0.33-0.874-0.655-1.947-1.178-3.136c-0.504-1.194-1.049-2.54-1.629-4.006c-0.666-1.441-1.38-2.998-2.082-4.659
			c-0.789-1.631-1.64-3.339-2.471-5.122c-0.896-1.757-1.823-3.572-2.765-5.416c-1.006-1.814-1.91-3.713-2.966-5.54
			c-1.002-1.853-2.013-3.702-3.041-5.508c-1.004-1.819-2.028-3.591-3.005-5.316c-1.974-3.451-3.815-6.672-5.395-9.434
			c-1.593-2.763-2.898-5.092-3.801-6.735C331.958,440.194,331.5,439.225,331.5,439.225z"/>
	</g>
	<g>
		<path d="M365,495.725c1.193,0.798,2.415,1.566,3.511,2.523c0.546,0.479,1.071,0.994,1.492,1.619
			c0.199,0.319,0.388,0.659,0.48,1.053c0.087,0.39,0.088,0.828-0.071,1.226c-0.17,0.381-0.425,0.728-0.736,0.966
			c-0.3,0.26-0.633,0.461-0.972,0.625c-0.677,0.346-1.387,0.571-2.098,0.76c-0.712,0.188-1.43,0.334-2.149,0.451
			c-0.72,0.126-1.441,0.209-2.163,0.298l0.062-0.009c-5.385,1.151-10.813,1.811-16.266,2.331
			c-5.452,0.489-10.927,0.739-16.402,0.813c-5.475,0.061-10.956-0.034-16.424-0.357c-5.473-0.272-10.934-0.747-16.38-1.364
			c-2.725-0.295-5.433-0.714-8.15-1.065c-2.713-0.387-5.412-0.864-8.12-1.292c-2.701-0.463-5.387-1.013-8.081-1.515
			c-2.689-0.53-5.353-1.186-8.029-1.772c-5.33-1.275-10.648-2.619-15.903-4.179l-3.951-1.137l-3.916-1.253
			c-2.601-0.865-5.227-1.655-7.792-2.62l-7.729-2.801l-7.643-3.024c-1.28-0.489-2.539-1.028-3.794-1.58l-3.77-1.636l-3.762-1.652
			l-3.711-1.761c-2.466-1.19-4.952-2.34-7.401-3.564l-7.292-3.779c-2.452-1.219-4.801-2.63-7.188-3.967l-3.569-2.026
			c-1.195-0.666-2.378-1.352-3.537-2.08l-6.998-4.284l-1.749-1.07l-1.709-1.134l-3.413-2.274c-2.262-1.534-4.577-2.987-6.793-4.588
			l-6.653-4.786c-2.23-1.575-4.379-3.262-6.53-4.945l-6.458-5.029c-1.069-0.85-2.133-1.75-3.091-2.757
			c-0.483-0.5-0.939-1.035-1.338-1.622c-0.388-0.587-0.763-1.236-0.821-2.019c-0.027-0.385,0.057-0.802,0.276-1.135
			c0.216-0.334,0.527-0.576,0.851-0.738c0.651-0.335,1.35-0.453,2.035-0.526c1.378-0.126,2.746-0.004,4.095,0.178
			c-1.357-0.089-2.729-0.113-4.059,0.104c-0.657,0.115-1.319,0.283-1.862,0.614c-0.561,0.318-0.873,0.868-0.773,1.451
			c0.083,0.586,0.431,1.155,0.817,1.673c0.395,0.52,0.85,1.004,1.338,1.459c0.97,0.919,2.035,1.731,3.141,2.52l6.691,4.677
			c2.225,1.563,4.447,3.129,6.748,4.581l6.813,4.477c2.26,1.507,4.616,2.866,6.918,4.306c4.595,2.896,9.328,5.557,14.027,8.269
			c1.167,0.691,2.359,1.339,3.562,1.968l3.591,1.913c2.399,1.265,4.769,2.583,7.211,3.761l7.279,3.625
			c2.443,1.173,4.922,2.27,7.381,3.408l3.699,1.683l3.746,1.573c2.505,1.031,4.963,2.175,7.498,3.131l7.57,2.949l7.652,2.726
			c2.54,0.94,5.139,1.706,7.712,2.547l3.86,1.259l3.896,1.143c5.183,1.569,10.427,2.924,15.685,4.212
			c2.641,0.596,5.27,1.249,7.92,1.799c2.652,0.539,5.297,1.125,7.957,1.625c2.667,0.466,5.326,0.98,8,1.406
			c2.679,0.39,5.351,0.848,8.037,1.182c5.371,0.691,10.751,1.35,16.155,1.75c5.4,0.468,10.816,0.681,16.235,0.847
			c5.421,0.142,10.845,0.049,16.265-0.172c5.411-0.236,10.853-0.617,16.181-1.474l0.051-0.008l0.012-0.001
			c0.707-0.052,1.417-0.096,2.119-0.182c0.704-0.078,1.402-0.183,2.089-0.327c0.685-0.144,1.363-0.324,1.982-0.603
			c0.313-0.13,0.61-0.293,0.862-0.491c0.272-0.185,0.458-0.433,0.605-0.69c0.266-0.538,0.097-1.22-0.242-1.811
			c-0.343-0.596-0.814-1.133-1.314-1.636C367.302,497.457,366.137,496.604,365,495.725z"/>
	</g>
	<g>
		<path d="M123.75,436.725c-0.859,0.45-1.633,1.033-2.399,1.622c-0.759,0.597-1.503,1.213-2.22,1.858
			c-1.44,1.282-2.818,2.629-4.115,4.048c-1.298,1.416-2.516,2.899-3.661,4.43c-0.563,0.772-1.116,1.55-1.635,2.35
			c-0.516,0.8-1.026,1.604-1.483,2.437c-0.478,0.82-0.9,1.67-1.318,2.518c-0.402,0.856-0.787,1.718-1.131,2.595
			c-0.334,0.879-0.673,1.758-0.925,2.66c-0.288,0.893-0.49,1.807-0.708,2.714c-0.163,0.919-0.35,1.832-0.435,2.759
			c-0.133,0.92-0.148,1.851-0.195,2.774c0.008,0.927,0,1.851,0.085,2.772c0.032,0.924,0.205,1.836,0.313,2.751l0.041,0.346
			l-0.067,0.213c-0.278,0.884-0.508,1.807-0.842,2.66c-0.366,0.83-0.693,1.693-1.099,2.496l-1.262,2.375l-1.388,2.271
			c-1.917,2.967-3.998,5.799-6.193,8.506c-2.172,2.732-4.432,5.372-6.708,7.994c-2.283,2.613-4.612,5.18-6.964,7.718l-7.079,7.582
			l-7.115,7.528c-4.768,4.989-9.515,9.988-14.199,15.04l-7.022,7.576c-2.326,2.538-4.623,5.101-6.901,7.679
			c-2.261,2.592-4.562,5.152-6.777,7.783c-2.249,2.604-4.42,5.27-6.597,7.932l-3.24,4.016l-3.159,4.078
			c-2.058,2.754-4.149,5.489-6.119,8.311c-1.005,1.397-1.996,2.806-2.939,4.245c-0.954,1.433-1.964,2.833-2.865,4.301
			c-0.917,1.458-1.864,2.9-2.766,4.371L0,604.475l2.25-4.673c0.756-1.557,1.608-3.063,2.414-4.597
			c0.795-1.54,1.694-3.019,2.549-4.526c0.857-1.507,1.764-2.982,2.686-4.449c1.803-2.962,3.723-5.848,5.676-8.713l2.979-4.263
			l3.063-4.201c2.083-2.771,4.187-5.527,6.355-8.229c2.147-2.722,4.341-5.403,6.566-8.059c2.238-2.644,4.494-5.271,6.778-7.873
			c2.288-2.598,4.572-5.2,6.908-7.751c4.668-5.107,9.395-10.155,14.131-15.183l14.251-15.004l7.012-7.568
			c2.304-2.543,4.59-5.102,6.771-7.729c2.211-2.608,4.265-5.316,6.21-8.069c1.911-2.759,3.621-5.689,4.503-8.708l-0.026,0.559
			c-0.088-1.012-0.236-2.016-0.239-3.031c-0.061-1.013-0.006-2.025,0.038-3.035c0.098-1.006,0.168-2.016,0.358-3.007
			c0.143-0.999,0.39-1.976,0.615-2.954c0.28-0.965,0.546-1.932,0.899-2.869c0.317-0.948,0.72-1.864,1.119-2.775
			c0.408-0.909,0.856-1.797,1.337-2.665c0.492-0.861,0.988-1.72,1.538-2.541c2.157-3.314,4.718-6.327,7.578-8.995
			c1.429-1.335,2.909-2.61,4.479-3.768c0.78-0.584,1.584-1.136,2.4-1.665C122.019,437.612,122.853,437.096,123.75,436.725z"/>
	</g>
	<g>
		<path d="M372.75,496.225c0.881,0.559,1.648,1.271,2.438,1.948c0.782,0.688,1.538,1.405,2.279,2.137
			c1.491,1.454,2.928,2.967,4.306,4.535c1.379,1.567,2.738,3.16,3.994,4.839c0.63,0.837,1.261,1.675,1.859,2.54
			c0.611,0.854,1.189,1.735,1.771,2.615c0.563,0.894,1.119,1.793,1.63,2.724c0.531,0.916,1.01,1.869,1.488,2.822
			c0.466,0.961,0.907,1.938,1.307,2.94c0.389,1.007,0.78,2.018,1.069,3.075c0.315,1.045,0.545,2.129,0.728,3.226
			c0.183,1.1,0.268,2.228,0.286,3.367c-0.023,0.573-0.03,1.147-0.076,1.723c-0.082,0.576-0.155,1.154-0.254,1.729l-0.453,1.712
			l-0.661,1.658l0.188-0.664c-0.078,1.535-0.103,3.089,0.063,4.664c0.074,0.786,0.149,1.572,0.293,2.361
			c0.113,0.788,0.252,1.575,0.431,2.361c0.152,0.788,0.335,1.573,0.546,2.356c0.189,0.785,0.402,1.566,0.642,2.345
			c0.436,1.564,0.933,3.122,1.464,4.671c1.063,3.098,2.266,6.166,3.568,9.202c1.271,3.051,2.617,6.081,4.013,9.095l4.235,9.044
			c1.441,3.008,2.857,6.035,4.248,9.081c1.407,3.036,2.739,6.117,3.984,9.239c0.625,1.559,1.176,3.153,1.7,4.75
			c0.491,1.61,0.939,3.241,1.165,4.903c-0.492-1.603-1.157-3.129-1.842-4.642c-0.704-1.507-1.452-2.989-2.234-4.459
			c-1.534-2.951-3.192-5.843-4.804-8.762c-1.634-2.909-3.282-5.814-4.875-8.756c-1.601-2.937-3.217-5.874-4.716-8.878
			c-1.514-2.996-2.993-6.019-4.389-9.09c-1.365-3.085-2.641-6.224-3.781-9.429c-0.297-0.797-0.559-1.608-0.824-2.42
			c-0.273-0.808-0.527-1.625-0.754-2.452c-0.241-0.82-0.458-1.651-0.651-2.492c-0.213-0.832-0.399-1.675-0.555-2.528
			c-0.182-0.845-0.323-1.703-0.438-2.569c-0.144-0.857-0.221-1.733-0.292-2.61c-0.157-1.751-0.136-3.544,0.008-5.34l0.023-0.291
			l0.164-0.373l0.531-1.208l0.386-1.277l0.244-1.334c0.05-0.453,0.068-0.916,0.108-1.375c0.014-0.93-0.02-1.871-0.145-2.82
			c-0.125-0.946-0.289-1.9-0.54-2.846c-0.208-0.952-0.509-1.896-0.813-2.838c-0.313-0.942-0.672-1.874-1.057-2.8
			c-0.398-0.92-0.796-1.845-1.253-2.747c-0.433-0.912-0.924-1.799-1.387-2.703c-0.491-0.89-0.98-1.782-1.507-2.657
			c-0.511-0.882-1.06-1.745-1.607-2.609c-1.109-1.72-2.253-3.426-3.454-5.096c-1.206-1.665-2.445-3.313-3.727-4.932
			c-0.64-0.811-1.304-1.6-1.962-2.397C374.184,497.714,373.533,496.901,372.75,496.225z"/>
	</g>
	<g>
		<path d="M208.25,216.475c0,0,0.897-0.745,2.604-1.855c0.853-0.555,1.9-1.216,3.14-1.906c1.239-0.692,2.648-1.462,4.239-2.191
			c1.577-0.76,3.321-1.514,5.202-2.224c1.886-0.695,3.884-1.428,6.008-2.005c2.113-0.613,4.334-1.131,6.612-1.555
			c2.281-0.409,4.618-0.748,6.974-0.919c2.353-0.192,4.72-0.235,7.046-0.174c1.163,0.037,2.316,0.128,3.453,0.206
			c1.135,0.134,2.256,0.245,3.352,0.406c1.092,0.2,2.17,0.356,3.211,0.583c1.035,0.252,2.048,0.498,3.033,0.738
			c0.97,0.293,1.913,0.578,2.825,0.854c0.902,0.301,1.754,0.658,2.579,0.963c1.651,0.608,3.092,1.355,4.371,1.971
			c1.254,0.683,2.341,1.273,3.202,1.819c1.711,1.117,2.649,1.788,2.649,1.788s-1.112-0.368-2.993-1.07
			c-0.942-0.345-2.127-0.665-3.434-1.119c-0.661-0.21-1.385-0.379-2.132-0.586c-0.749-0.204-1.523-0.446-2.358-0.614
			c-0.83-0.18-1.682-0.404-2.579-0.567c-0.894-0.168-1.817-0.343-2.768-0.522c-0.955-0.132-1.938-0.267-2.94-0.405
			c-1.006-0.102-2.032-0.205-3.077-0.31c-1.047-0.065-2.11-0.131-3.188-0.197c-1.078-0.02-2.17-0.039-3.271-0.059
			c-2.2,0.031-4.437,0.076-6.668,0.281c-1.117,0.071-2.231,0.181-3.34,0.321c-1.11,0.113-2.212,0.283-3.307,0.433
			c-1.092,0.181-2.175,0.36-3.244,0.537c-1.064,0.217-2.123,0.396-3.154,0.628c-2.07,0.432-4.063,0.915-5.947,1.404
			c-1.873,0.528-3.658,1.01-5.287,1.522c-3.263,1.014-5.965,1.969-7.853,2.673C209.324,216.03,208.25,216.475,208.25,216.475z"/>
	</g>
	<g>
		<path d="M326.25,465.475c0,0-0.094-0.751-0.189-2.063c-0.096-1.312-0.209-3.187-0.244-5.433c-0.025-1.123-0.048-2.34-0.023-3.624
			c0.01-1.286,0.016-2.643,0.082-4.042c0.058-1.4,0.095-2.85,0.203-4.317c0.107-1.468,0.218-2.959,0.327-4.451
			c0.141-1.489,0.295-2.979,0.468-4.441c0.17-1.465,0.404-2.899,0.601-4.29c0.438-2.779,0.948-5.363,1.504-7.557
			c0.285-1.099,0.546-2.098,0.836-2.977c0.288-0.881,0.562-1.637,0.793-2.255c0.553-1.223,0.894-1.883,0.894-1.883
			s-0.099,0.765-0.316,2.034c-0.071,0.65-0.133,1.443-0.246,2.335c-0.077,0.9-0.165,1.917-0.261,3.026
			c-0.093,1.106-0.15,2.317-0.275,3.582c-0.099,1.271-0.165,2.617-0.304,3.999c-0.112,1.388-0.189,2.825-0.33,4.278
			c-0.124,1.457-0.25,2.938-0.377,4.417c-0.144,1.479-0.287,2.959-0.429,4.415c-0.119,1.459-0.323,2.889-0.459,4.277
			c-0.138,1.388-0.328,2.727-0.484,3.998c-0.151,1.271-0.33,2.473-0.491,3.581c-0.316,2.219-0.637,4.065-0.875,5.358
			C326.416,464.737,326.25,465.475,326.25,465.475z"/>
	</g>
	<g>
		<path d="M162.917,325.263c0.549,0.808,0.935,1.729,1.374,2.604l1.26,2.662l2.493,5.335c1.67,3.552,3.322,7.109,5.045,10.631
			c1.732,3.516,3.51,7.009,5.434,10.403c0.966,1.692,1.971,3.365,3.073,4.936l0.845,1.158c0.274,0.396,0.613,0.692,0.913,1.044
			l0.462,0.509l0.534,0.427l1.146,0.924c6.103,4.957,12.233,9.813,18.532,14.444c3.174,2.288,6.301,4.64,9.563,6.796l4.843,3.304
			l4.934,3.158c3.259,2.155,6.664,4.063,10.012,6.064c1.682,0.986,3.419,1.871,5.125,2.812l2.569,1.391
			c0.856,0.462,1.742,0.865,2.612,1.301c6.939,3.527,14.113,6.561,21.462,8.987c7.347,2.414,14.912,4.163,22.551,4.803
			c0.955,0.066,1.908,0.199,2.863,0.213l2.865,0.063l1.433,0.032l1.479-0.011c0.976-0.014,1.983,0.007,2.902-0.067
			c3.747-0.163,7.58-0.655,11.241-1.553c7.352-1.776,14.233-5.275,19.796-10.335c5.564-5.058,9.847-11.492,12.77-18.515
			c1.485-3.505,2.628-7.161,3.514-10.879c0.202-0.934,0.424-1.864,0.593-2.805l0.567-2.897l1.142-5.775
			c1.698-7.745,3.696-15.452,6.301-22.929c0.594-1.89,1.306-3.743,2.011-5.598l1.052-2.785l1.165-2.747l1.176-2.744l1.313-2.701
			c0.824-1.812,1.895-3.565,2.911-5.328l1.453-2.484l1.203-2.494c0.401-0.834,0.731-1.756,1.102-2.63
			c0.379-0.877,0.691-1.786,1.002-2.697c1.304-3.618,2.278-7.375,3.157-11.145c1.675-7.568,2.663-15.305,2.958-23.057
			c0.214-7.742-0.342-15.554-2.379-22.984l0.043,0.117l-0.709-1.858c-0.189-0.634-0.394-1.264-0.566-1.901
			c-0.143-0.645-0.308-1.284-0.429-1.932c-0.098-0.651-0.224-1.298-0.296-1.951c-0.055-0.655-0.141-1.307-0.168-1.962
			c-0.013-0.655-0.06-1.311-0.044-1.965c0.026-0.654,0.019-1.309,0.074-1.96c0.064-0.65,0.096-1.303,0.188-1.949
			c0.102-0.644,0.17-1.293,0.298-1.932c0.137-0.637,0.243-1.28,0.404-1.91c0.307-1.265,0.682-2.51,1.11-3.735
			c0.234-0.605,0.452-1.217,0.7-1.816l0.795-1.775l0.886-1.729l0.976-1.679l0.009-0.016l0.056-0.07
			c0.31-0.391,0.659-0.751,0.942-1.167c0.256-0.436,0.573-0.835,0.782-1.302c0.207-0.466,0.48-0.902,0.636-1.395
			c0.164-0.486,0.388-0.953,0.503-1.458c0.125-0.5,0.302-0.989,0.386-1.501c0.089-0.51,0.216-1.014,0.276-1.53
			c0.057-0.516,0.134-1.03,0.175-1.548l0.086-1.559l-0.018-1.563c-0.026-0.521-0.079-1.04-0.117-1.561
			c-0.045-0.52-0.148-1.032-0.22-1.55c-0.069-0.519-0.223-1.02-0.33-1.532c-0.101-0.516-0.306-0.999-0.454-1.501
			c-0.141-0.506-0.398-0.966-0.593-1.453c-0.199-0.486-0.505-0.917-0.753-1.38c-0.277-0.444-0.625-0.842-0.937-1.268
			c0.328,0.41,0.696,0.794,0.995,1.229c0.27,0.452,0.599,0.875,0.82,1.355c0.218,0.481,0.5,0.938,0.665,1.442
			c0.172,0.5,0.403,0.984,0.527,1.5c0.132,0.512,0.312,1.017,0.405,1.539c0.096,0.521,0.224,1.04,0.293,1.566
			c0.063,0.527,0.141,1.054,0.19,1.583l0.089,1.594l-0.019,1.598c-0.024,0.533-0.085,1.063-0.127,1.596
			c-0.045,0.533-0.157,1.057-0.232,1.587c-0.07,0.532-0.234,1.046-0.348,1.57c-0.104,0.528-0.319,1.027-0.477,1.543
			c-0.146,0.521-0.418,0.998-0.623,1.5c-0.208,0.502-0.533,0.952-0.797,1.431c-0.293,0.462-0.665,0.879-0.998,1.321l0.064-0.085
			l-0.893,1.662l-0.803,1.706l-0.712,1.744c-0.221,0.587-0.412,1.186-0.619,1.777c-0.374,1.197-0.694,2.409-0.949,3.634
			c-0.135,0.611-0.216,1.232-0.327,1.847c-0.102,0.616-0.146,1.24-0.224,1.859c-0.068,0.62-0.075,1.245-0.117,1.866
			c-0.033,0.622-0.003,1.245-0.009,1.866c0.005,0.622,0.071,1.24,0.104,1.859c0.046,0.619,0.149,1.23,0.22,1.845
			c0.089,0.612,0.229,1.215,0.339,1.823c0.134,0.602,0.31,1.194,0.461,1.791c0.182,0.588,0.392,1.166,0.584,1.749l0.708,1.698
			l0.03,0.072l0.014,0.045c2.307,7.68,3.058,15.688,3.031,23.62c-0.085,7.944-1.007,15.855-2.575,23.645
			c-0.835,3.885-1.768,7.759-3.06,11.552c-0.306,0.952-0.615,1.904-0.999,2.838c-0.378,0.939-0.693,1.874-1.124,2.818l-1.323,2.822
			l-1.493,2.612c-0.92,1.65-1.89,3.256-2.673,5.03l-1.234,2.606l-1.114,2.68l-1.106,2.684l-0.999,2.734
			c-0.671,1.82-1.348,3.638-1.911,5.501c-0.58,1.854-1.214,3.691-1.751,5.56l-1.558,5.622c-0.56,1.867-0.916,3.766-1.391,5.644
			l-0.673,2.824l-0.337,1.412l-0.28,1.444l-1.121,5.779l-0.554,2.883c-0.176,0.991-0.404,1.972-0.614,2.956
			c-0.92,3.92-2.112,7.785-3.678,11.517c-3.088,7.455-7.627,14.464-13.73,19.952c-6.081,5.501-13.641,9.296-21.548,11.171
			c-3.97,0.952-7.962,1.456-12.055,1.62c-1.038,0.073-1.994,0.048-2.981,0.059l-1.464,0.006l-1.511-0.038l-3.021-0.077
			c-1.007-0.019-2.002-0.17-3.003-0.25c-8.005-0.754-15.817-2.656-23.346-5.215c-7.521-2.589-14.841-5.717-21.823-9.446
			c-0.877-0.458-1.771-0.886-2.633-1.369l-2.584-1.456c-1.714-0.983-3.461-1.912-5.147-2.94c-3.355-2.083-6.768-4.076-10.021-6.308
			l-4.927-3.276l-4.812-3.437c-3.236-2.252-6.328-4.695-9.466-7.073l-2.344-1.796l-2.298-1.858l-4.595-3.717
			c-1.548-1.223-3.026-2.51-4.512-3.793l-4.46-3.843l-1.115-0.961l-0.597-0.516l-0.513-0.594c-0.326-0.402-0.712-0.782-0.983-1.203
			l-0.851-1.249c-1.097-1.679-2.058-3.409-2.98-5.156c-1.832-3.498-3.5-7.062-5.119-10.644c-1.6-3.591-3.169-7.191-4.673-10.818
			l-2.254-5.44l-1.14-2.714c-0.194-0.45-0.38-0.905-0.587-1.346C163.387,326.127,163.182,325.679,162.917,325.263z"/>
	</g>
</g>
</svg>
